<svg xmlns="http://www.w3.org/2000/svg" xmlns:xlink="http://www.w3.org/1999/xlink" width="100" zoomAndPan="magnify" viewBox="0 0 75 74.999997" height="100" preserveAspectRatio="xMidYMid meet" version="1.0"><defs><g/></defs><path fill="#000000" d="M 37.5 0 C 16.789062 0 0 16.789062 0 37.5 C 0 58.210938 16.789062 75 37.5 75 C 58.210938 75 75 58.210938 75 37.5 C 75 16.789062 58.210938 0 37.5 0 Z M 59.304688 38.558594 C 58.238281 39.628906 56.660156 39.878906 55.351562 39.308594 L 55.351562 53.53125 C 55.351562 56.488281 52.953125 58.886719 49.996094 58.886719 L 25.003906 58.886719 C 22.046875 58.886719 19.648438 56.488281 19.648438 53.53125 L 19.648438 39.308594 C 18.339844 39.878906 16.761719 39.628906 15.695312 38.558594 C 14.300781 37.164062 14.300781 34.90625 15.695312 33.511719 L 34.976562 14.230469 C 36.371094 12.835938 38.628906 12.835938 40.023438 14.230469 L 59.304688 33.511719 C 60.699219 34.90625 60.699219 37.164062 59.304688 38.558594 Z M 59.304688 38.558594 " fill-opacity="1" fill-rule="nonzero"/><path fill="#000000" d="M 41.964844 39.25 L 33.035156 39.25 C 32.050781 39.25 31.25 40.046875 31.25 41.035156 L 31.25 51.746094 C 31.25 52.730469 32.050781 53.53125 33.035156 53.53125 L 41.964844 53.53125 C 42.949219 53.53125 43.75 52.730469 43.75 51.746094 L 43.75 41.035156 C 43.75 40.046875 42.949219 39.25 41.964844 39.25 Z M 41.964844 39.25 " fill-opacity="1" fill-rule="nonzero"/><g fill="#000000" fill-opacity="1"><g transform="translate(16.818442, 18.473129)"><g><path d="M 0.53125 0.015625 C 0.457031 0.015625 0.394531 -0.00390625 0.34375 -0.046875 C 0.300781 -0.0859375 0.28125 -0.140625 0.28125 -0.203125 C 0.28125 -0.273438 0.300781 -0.332031 0.34375 -0.375 C 0.394531 -0.414062 0.457031 -0.4375 0.53125 -0.4375 C 0.601562 -0.4375 0.660156 -0.414062 0.703125 -0.375 C 0.742188 -0.332031 0.765625 -0.28125 0.765625 -0.21875 C 0.765625 -0.144531 0.742188 -0.0859375 0.703125 -0.046875 C 0.660156 -0.00390625 0.601562 0.015625 0.53125 0.015625 Z M 0.53125 0.015625 "/></g></g></g></svg>