<svg xmlns="http://www.w3.org/2000/svg" xmlns:xlink="http://www.w3.org/1999/xlink" width="100" zoomAndPan="magnify" viewBox="0 0 75 74.999997" height="100" preserveAspectRatio="xMidYMid meet" version="1.0"><defs><clipPath id="f6040624ae"><path d="M 8 3.375 L 65 3.375 L 65 60 L 8 60 Z M 8 3.375 " clip-rule="nonzero"/></clipPath><clipPath id="7b21067777"><path d="M 11 31 L 30 31 L 30 71.625 L 11 71.625 Z M 11 31 " clip-rule="nonzero"/></clipPath><clipPath id="b5dc6e820f"><path d="M 13 54 L 28 54 L 28 71.625 L 13 71.625 Z M 13 54 " clip-rule="nonzero"/></clipPath></defs><g clip-path="url(#f6040624ae)"><path fill="#232323" d="M 64.820312 34.933594 L 49.125 37.402344 C 49.8125 37.296875 51.214844 40.027344 51.59375 40.511719 C 52.96875 42.261719 54.925781 43.996094 55.882812 46.011719 C 55.070312 46.363281 53.472656 45.734375 52.632812 45.496094 C 51.488281 45.179688 50.367188 44.789062 49.214844 44.507812 L 43.539062 43.125 C 43.121094 45.6875 43.347656 48.535156 43.257812 51.132812 C 43.167969 53.746094 43.507812 56.855469 42.925781 59.390625 C 41.375 57.273438 40.371094 54.378906 39.1875 52.023438 L 35.527344 44.726562 C 35.503906 44.679688 35.480469 44.632812 35.457031 44.585938 C 33.632812 46.527344 31.832031 48.492188 30.011719 50.441406 C 28.300781 52.265625 26.554688 54.59375 24.519531 56.039062 C 24.753906 53.488281 25.640625 51.078125 26.261719 48.613281 C 26.464844 47.804688 27.476562 41.3125 27.960938 41.238281 L 13.511719 43.507812 L 23.902344 34.34375 C 23.550781 34.65625 18.328125 31.867188 17.820312 31.644531 C 16.234375 30.941406 14.636719 30.269531 13.046875 29.582031 C 11.539062 28.929688 9.558594 28.359375 8.277344 27.34375 C 10.5 26.558594 13.441406 27.058594 15.78125 26.953125 L 24.425781 26.5625 L 24.847656 26.546875 C 24.460938 26.5625 22.570312 22.167969 22.359375 21.761719 C 22.171875 20.601562 21.316406 19.550781 20.71875 18.5625 C 19.949219 17.289062 19.242188 15.980469 18.585938 14.640625 C 18.535156 14.53125 18.519531 14.445312 18.601562 14.351562 C 20.902344 14.871094 22.988281 16.71875 25.03125 17.84375 C 25.449219 18.078125 30.484375 20.476562 30.433594 20.824219 L 32.914062 4.566406 C 32.96875 4.222656 33.007812 3.855469 33.113281 3.542969 C 33.90625 4.902344 34.257812 6.777344 34.765625 8.28125 C 35.859375 10.363281 36.367188 13.011719 37.121094 15.246094 C 37.546875 16.507812 37.769531 18.25 38.550781 19.324219 C 40.425781 17.890625 42.164062 16.261719 43.960938 14.730469 L 47.996094 11.296875 C 48.238281 11.089844 50.195312 9.097656 50.472656 9.195312 L 50.523438 9.195312 C 50.183594 12.019531 48.613281 15.007812 47.703125 17.699219 L 46.515625 21.226562 C 46.34375 21.730469 46.292969 22.277344 46.007812 22.738281 C 48.40625 21.996094 50.832031 21.347656 53.269531 20.746094 C 55.5625 20.183594 58.175781 19.210938 60.527344 19.121094 C 60.097656 20.355469 58.523438 21.558594 57.566406 22.4375 C 56.476562 23.433594 55.339844 24.378906 54.292969 25.414062 C 53.929688 25.773438 50.476562 29.753906 50.066406 29.605469 Z M 64.820312 34.933594 " fill-opacity="1" fill-rule="nonzero"/><path fill="#232323" d="M 64.777344 34.789062 L 59.46875 35.625 L 51.035156 36.949219 L 49.082031 37.261719 C 48.914062 37.289062 48.953125 37.574219 49.121094 37.558594 C 49.371094 37.535156 49.601562 37.839844 49.746094 38.007812 C 49.992188 38.296875 50.214844 38.605469 50.414062 38.925781 C 50.769531 39.46875 51.066406 40.058594 51.449219 40.578125 C 52.839844 42.460938 54.710938 43.953125 55.746094 46.089844 L 55.835938 45.871094 C 55.074219 46.164062 54.125 45.804688 53.386719 45.578125 C 52.414062 45.277344 51.441406 44.984375 50.460938 44.699219 C 48.199219 44.03125 45.867188 43.542969 43.570312 42.980469 C 43.472656 42.953125 43.414062 42.988281 43.386719 43.085938 C 42.957031 45.804688 43.167969 48.585938 43.09375 51.328125 C 43.023438 53.996094 43.359375 56.722656 42.773438 59.351562 L 43.050781 59.316406 C 41.535156 57.226562 40.664062 54.761719 39.558594 52.453125 C 38.28125 49.785156 36.914062 47.152344 35.582031 44.511719 C 35.554688 44.46875 35.519531 44.445312 35.472656 44.4375 C 35.421875 44.433594 35.382812 44.445312 35.347656 44.480469 C 33.421875 46.527344 31.496094 48.582031 29.601562 50.65625 C 27.949219 52.464844 26.441406 54.46875 24.4375 55.90625 L 24.664062 56.039062 C 24.929688 53.285156 26.019531 50.746094 26.523438 48.050781 C 26.835938 46.382812 27.113281 44.707031 27.488281 43.054688 C 27.578125 42.664062 27.667969 42.277344 27.789062 41.898438 C 27.824219 41.769531 27.871094 41.644531 27.921875 41.523438 C 27.945312 41.472656 28.023438 41.371094 27.996094 41.378906 C 28.1875 41.328125 28.105469 41.058594 27.917969 41.089844 L 23.046875 41.855469 L 15.273438 43.082031 L 13.472656 43.363281 L 13.621094 43.617188 L 17.121094 40.527344 L 22.710938 35.597656 L 24.011719 34.449219 C 24.136719 34.339844 23.96875 34.113281 23.828125 34.214844 C 23.757812 34.265625 23.421875 34.132812 23.3125 34.09375 C 22.929688 33.960938 22.558594 33.796875 22.1875 33.625 C 21.308594 33.230469 20.445312 32.796875 19.585938 32.363281 C 17.4375 31.277344 15.230469 30.34375 13.015625 29.402344 C 11.453125 28.742188 9.742188 28.285156 8.382812 27.234375 L 8.316406 27.488281 C 10.730469 26.660156 13.367188 27.207031 15.859375 27.097656 C 18.855469 26.96875 21.851562 26.832031 24.847656 26.695312 C 24.949219 26.695312 25 26.644531 25 26.542969 C 25 26.445312 24.949219 26.394531 24.847656 26.394531 C 24.902344 26.398438 24.816406 26.34375 24.78125 26.296875 C 24.714844 26.214844 24.65625 26.125 24.601562 26.035156 C 24.4375 25.765625 24.289062 25.488281 24.144531 25.207031 C 23.792969 24.527344 23.472656 23.832031 23.152344 23.136719 C 22.941406 22.679688 22.683594 22.214844 22.515625 21.742188 C 22.339844 21.253906 22.234375 20.78125 21.984375 20.3125 C 21.695312 19.773438 21.34375 19.269531 21.015625 18.753906 C 20.601562 18.101562 20.222656 17.429688 19.847656 16.75 C 19.65625 16.402344 19.472656 16.050781 19.289062 15.699219 C 19.195312 15.523438 19.105469 15.347656 19.015625 15.167969 C 18.945312 15.027344 18.648438 14.582031 18.734375 14.429688 L 18.566406 14.5 C 21.03125 15.082031 22.878906 16.910156 25.082031 18.042969 C 26.332031 18.6875 27.609375 19.285156 28.851562 19.957031 C 29.183594 20.140625 29.515625 20.324219 29.839844 20.523438 C 29.957031 20.59375 30.066406 20.667969 30.175781 20.75 C 30.214844 20.78125 30.285156 20.886719 30.285156 20.828125 C 30.285156 20.992188 30.554688 21.039062 30.582031 20.867188 L 31.914062 12.121094 L 32.570312 7.828125 L 32.894531 5.679688 C 33 4.988281 33.050781 4.253906 33.257812 3.582031 L 32.980469 3.621094 C 33.527344 4.578125 33.835938 5.648438 34.136719 6.707031 C 34.285156 7.226562 34.410156 7.761719 34.605469 8.269531 C 34.804688 8.792969 35.085938 9.292969 35.285156 9.820312 C 35.695312 10.902344 36.007812 12.015625 36.324219 13.125 C 36.617188 14.160156 36.976562 15.179688 37.25 16.21875 C 37.535156 17.304688 37.765625 18.46875 38.417969 19.402344 C 38.472656 19.484375 38.539062 19.503906 38.625 19.457031 C 40.65625 17.894531 42.53125 16.144531 44.480469 14.488281 C 46.011719 13.183594 47.5625 11.910156 49.019531 10.527344 C 49.316406 10.25 49.609375 9.972656 49.921875 9.714844 C 50.101562 9.566406 50.335938 9.34375 50.523438 9.355469 L 50.371094 9.203125 C 50.078125 11.511719 49.09375 13.671875 48.246094 15.820312 C 47.8125 16.914062 47.4375 18.019531 47.0625 19.132812 L 46.464844 20.894531 C 46.269531 21.480469 46.183594 22.125 45.875 22.664062 C 45.847656 22.722656 45.855469 22.777344 45.894531 22.828125 C 45.933594 22.878906 45.984375 22.898438 46.046875 22.886719 C 48.53125 22.121094 51.042969 21.476562 53.5625 20.828125 C 55.859375 20.242188 58.132812 19.382812 60.523438 19.273438 L 60.375 19.082031 C 59.933594 20.285156 58.78125 21.160156 57.851562 21.980469 C 56.703125 22.988281 55.546875 23.992188 54.449219 25.054688 C 53.414062 26.050781 52.507812 27.183594 51.503906 28.210938 C 51.214844 28.507812 50.921875 28.804688 50.609375 29.082031 C 50.519531 29.160156 50.179688 29.480469 50.105469 29.464844 C 50.011719 29.445312 49.957031 29.480469 49.929688 29.574219 C 49.90625 29.664062 49.9375 29.722656 50.027344 29.753906 L 55.023438 31.558594 L 62.949219 34.417969 L 64.777344 35.074219 C 64.960938 35.140625 65.039062 34.851562 64.855469 34.785156 L 59.859375 32.980469 L 51.9375 30.121094 L 50.105469 29.460938 L 50.027344 29.75 C 50.417969 29.847656 50.964844 29.167969 51.195312 28.945312 C 51.847656 28.3125 52.464844 27.644531 53.078125 26.972656 C 53.507812 26.503906 53.925781 26.011719 54.367188 25.554688 C 55.445312 24.4375 56.664062 23.441406 57.820312 22.40625 C 58.867188 21.46875 60.164062 20.527344 60.667969 19.160156 C 60.679688 19.113281 60.671875 19.070312 60.640625 19.03125 C 60.613281 18.988281 60.570312 18.96875 60.523438 18.96875 C 58.148438 19.078125 55.890625 19.910156 53.609375 20.503906 C 51.054688 21.167969 48.496094 21.8125 45.96875 22.59375 L 46.136719 22.8125 C 46.410156 22.332031 46.492188 21.789062 46.660156 21.265625 C 46.863281 20.625 47.089844 19.992188 47.304688 19.355469 C 47.695312 18.195312 48.085938 17.035156 48.535156 15.894531 C 49.394531 13.71875 50.375 11.542969 50.675781 9.199219 C 50.683594 9.117188 50.597656 9.054688 50.523438 9.050781 C 50.09375 9.027344 49.648438 9.542969 49.359375 9.804688 C 48.882812 10.230469 48.4375 10.6875 47.96875 11.117188 C 47.066406 11.949219 46.097656 12.71875 45.160156 13.515625 C 44.125 14.394531 43.089844 15.28125 42.066406 16.175781 C 40.894531 17.210938 39.714844 18.242188 38.472656 19.195312 L 38.675781 19.246094 C 38.082031 18.398438 37.851562 17.359375 37.59375 16.367188 C 37.324219 15.316406 36.964844 14.285156 36.664062 13.238281 C 36.347656 12.128906 36.039062 11.011719 35.640625 9.925781 C 35.457031 9.417969 35.242188 8.921875 35.011719 8.433594 C 34.777344 7.949219 34.644531 7.398438 34.496094 6.875 C 34.164062 5.710938 33.84375 4.523438 33.238281 3.46875 C 33.203125 3.414062 33.152344 3.394531 33.089844 3.402344 C 33.027344 3.410156 32.984375 3.445312 32.964844 3.503906 C 32.773438 4.148438 32.71875 4.855469 32.617188 5.523438 L 32.277344 7.746094 L 31.625 12.039062 L 30.289062 20.785156 L 30.585938 20.828125 C 30.589844 20.492188 29.863281 20.183594 29.640625 20.054688 C 28.910156 19.632812 28.15625 19.246094 27.40625 18.867188 C 26.75 18.535156 26.085938 18.207031 25.425781 17.878906 C 24.535156 17.433594 23.707031 16.863281 22.878906 16.316406 C 21.5625 15.449219 20.199219 14.574219 18.644531 14.207031 C 18.570312 14.191406 18.515625 14.214844 18.472656 14.277344 C 18.367188 14.46875 18.402344 14.589844 18.492188 14.789062 C 18.667969 15.171875 18.867188 15.542969 19.0625 15.917969 C 19.417969 16.597656 19.789062 17.273438 20.175781 17.9375 C 20.878906 19.144531 21.859375 20.300781 22.191406 21.683594 C 22.308594 22.1875 22.613281 22.683594 22.828125 23.152344 C 23.179688 23.917969 23.53125 24.683594 23.921875 25.429688 C 24.078125 25.75 24.257812 26.058594 24.453125 26.359375 C 24.546875 26.496094 24.667969 26.6875 24.851562 26.703125 L 24.851562 26.398438 C 21.808594 26.535156 18.765625 26.691406 15.726562 26.808594 C 13.246094 26.902344 10.640625 26.378906 8.242188 27.203125 C 8.148438 27.234375 8.078125 27.378906 8.175781 27.453125 C 9.390625 28.398438 10.882812 28.878906 12.296875 29.4375 C 14.0625 30.132812 15.800781 30.914062 17.535156 31.683594 C 19.097656 32.371094 20.582031 33.238281 22.144531 33.9375 C 22.527344 34.117188 22.921875 34.277344 23.324219 34.414062 C 23.496094 34.46875 23.808594 34.597656 23.976562 34.476562 L 23.796875 34.242188 L 20.292969 37.328125 L 14.703125 42.257812 L 13.40625 43.402344 C 13.28125 43.511719 13.421875 43.675781 13.554688 43.65625 L 18.425781 42.886719 L 26.199219 41.664062 L 28 41.378906 L 27.921875 41.089844 C 27.5625 41.183594 27.445312 42 27.371094 42.28125 C 27.136719 43.171875 26.964844 44.078125 26.789062 44.976562 C 26.621094 45.855469 26.464844 46.734375 26.304688 47.613281 C 26.136719 48.539062 25.894531 49.4375 25.636719 50.339844 C 25.101562 52.214844 24.554688 54.089844 24.367188 56.035156 C 24.367188 56.09375 24.394531 56.136719 24.445312 56.164062 C 24.492188 56.195312 24.542969 56.195312 24.59375 56.167969 C 26.585938 54.734375 28.097656 52.765625 29.734375 50.964844 C 31.648438 48.847656 33.609375 46.769531 35.5625 44.691406 L 35.328125 44.660156 C 36.664062 47.300781 38.03125 49.933594 39.308594 52.601562 C 40.414062 54.914062 41.28125 57.378906 42.796875 59.464844 C 42.867188 59.5625 43.042969 59.566406 43.074219 59.429688 C 43.644531 56.859375 43.351562 54.199219 43.398438 51.585938 C 43.445312 48.792969 43.246094 45.933594 43.683594 43.164062 L 43.5 43.269531 C 45.890625 43.851562 48.316406 44.363281 50.675781 45.070312 C 51.644531 45.359375 52.609375 45.65625 53.578125 45.941406 C 54.292969 46.15625 55.1875 46.4375 55.921875 46.15625 C 55.96875 46.140625 56 46.113281 56.019531 46.066406 C 56.039062 46.023438 56.035156 45.976562 56.011719 45.933594 C 55.480469 44.835938 54.714844 43.875 53.914062 42.953125 C 53.15625 42.078125 52.273438 41.25 51.621094 40.289062 C 51.195312 39.664062 50.839844 38.988281 50.40625 38.367188 C 50.148438 38 49.671875 37.207031 49.125 37.253906 L 49.164062 37.546875 L 54.476562 36.714844 L 62.90625 35.386719 L 64.859375 35.082031 C 65.050781 35.046875 64.96875 34.757812 64.777344 34.789062 Z M 64.777344 34.789062 " fill-opacity="1" fill-rule="nonzero"/></g><path fill="#ffffff" d="M 55.792969 31.894531 C 56.355469 30.796875 57.585938 30.105469 58.34375 29.097656 C 58.730469 28.589844 59.101562 28.027344 59.683594 27.765625 C 61.210938 27.089844 61.625 29.035156 61.390625 30.078125 C 61.804688 29.507812 62.699219 29.363281 63.273438 29.777344 C 63.847656 30.191406 63.992188 31.085938 63.582031 31.660156 C 64.378906 31.089844 65.609375 31.539062 66.070312 32.410156 C 66.53125 33.277344 66.339844 34.375 65.835938 35.21875 C 66.480469 35.328125 66.96875 35.914062 67.097656 36.550781 C 67.59375 39.011719 64.996094 40.632812 62.894531 40.847656 C 61.324219 41.007812 59.726562 40.5625 58.355469 39.78125 C 56.046875 38.464844 54.316406 36.160156 53.742188 33.566406 C 53.605469 32.957031 53.558594 32.34375 53.597656 31.71875 C 53.636719 31.097656 53.761719 30.496094 53.972656 29.910156 C 54.1875 29.324219 54.476562 28.78125 54.84375 28.277344 C 55.210938 27.773438 55.644531 27.332031 56.136719 26.953125 C 56.976562 26.304688 57.917969 25.761719 58.957031 25.539062 C 59.578125 25.414062 60.203125 25.414062 60.824219 25.542969 C 61.292969 25.632812 61.683594 25.757812 62.007812 25.320312 C 62.296875 24.929688 62.144531 24.382812 62.425781 23.984375 C 62.714844 23.574219 63.296875 23.40625 63.769531 23.535156 C 65.625 24.046875 66.261719 27.488281 67.363281 28.886719 C 68.613281 30.460938 69.875 31.871094 71.535156 32.996094 C 72.375 33.5625 72.84375 34.578125 72.910156 35.589844 C 72.972656 36.601562 72.667969 37.605469 72.207031 38.511719 C 71.714844 39.46875 71.074219 40.308594 70.285156 41.039062 C 69.492188 41.765625 68.601562 42.332031 67.605469 42.738281 " fill-opacity="1" fill-rule="nonzero"/><path fill="#232323" d="M 56.007812 32.019531 C 56.414062 31.265625 57.089844 30.730469 57.710938 30.152344 C 58.023438 29.871094 58.308594 29.5625 58.570312 29.230469 C 58.839844 28.878906 59.09375 28.5 59.445312 28.222656 C 59.960938 27.824219 60.617188 27.746094 60.941406 28.378906 C 61.191406 28.859375 61.230469 29.480469 61.117188 30 C 61.066406 30.25 61.398438 30.515625 61.585938 30.277344 C 61.941406 29.832031 62.605469 29.65625 63.09375 30.003906 C 63.578125 30.351562 63.636719 31.035156 63.328125 31.507812 C 63.171875 31.75 63.484375 32.070312 63.730469 31.910156 C 64.398438 31.472656 65.3125 31.785156 65.734375 32.425781 C 66.261719 33.226562 66.011719 34.285156 65.5625 35.054688 C 65.511719 35.144531 65.507812 35.238281 65.546875 35.332031 C 65.585938 35.425781 65.652344 35.488281 65.75 35.519531 C 66.742188 35.738281 66.964844 36.898438 66.742188 37.753906 C 66.53125 38.558594 65.921875 39.203125 65.234375 39.648438 C 63.539062 40.742188 61.449219 40.71875 59.609375 39.988281 C 55.929688 38.53125 52.910156 34.089844 54.289062 30.097656 C 54.964844 28.148438 56.746094 26.527344 58.734375 25.972656 C 59.367188 25.796875 60.007812 25.769531 60.652344 25.886719 C 61.058594 25.957031 61.484375 26.089844 61.878906 25.902344 C 62.308594 25.695312 62.5 25.257812 62.574219 24.808594 C 62.609375 24.574219 62.621094 24.308594 62.792969 24.121094 C 62.976562 23.941406 63.199219 23.855469 63.457031 23.863281 C 64.136719 23.875 64.660156 24.554688 64.988281 25.074219 C 65.417969 25.761719 65.730469 26.511719 66.058594 27.25 C 66.347656 27.894531 66.632812 28.546875 67.066406 29.109375 C 67.742188 29.992188 68.472656 30.828125 69.261719 31.609375 C 69.671875 32.011719 70.105469 32.390625 70.558594 32.746094 C 70.96875 33.066406 71.441406 33.328125 71.789062 33.71875 C 72.503906 34.527344 72.660156 35.6875 72.449219 36.714844 C 72.027344 38.785156 70.515625 40.617188 68.757812 41.726562 C 68.335938 41.996094 67.890625 42.226562 67.425781 42.421875 C 67.054688 42.578125 67.324219 43.238281 67.707031 43.085938 C 69.816406 42.230469 71.605469 40.636719 72.601562 38.578125 C 73.144531 37.457031 73.460938 36.199219 73.210938 34.960938 C 73.101562 34.421875 72.890625 33.929688 72.570312 33.484375 C 72.21875 33 71.761719 32.703125 71.285156 32.347656 C 70.28125 31.605469 69.394531 30.710938 68.578125 29.761719 C 67.929688 29.011719 67.363281 28.277344 66.945312 27.378906 C 66.289062 25.972656 65.699219 23.917969 64.132812 23.261719 C 63.15625 22.855469 62.058594 23.367188 61.878906 24.433594 C 61.835938 24.679688 61.835938 25.070312 61.585938 25.214844 C 61.394531 25.320312 61.121094 25.214844 60.925781 25.179688 C 60.261719 25.050781 59.597656 25.042969 58.933594 25.164062 C 56.6875 25.601562 54.625 27.394531 53.75 29.484375 C 51.953125 33.785156 55.039062 38.761719 59.023438 40.515625 C 61.058594 41.410156 63.417969 41.535156 65.378906 40.390625 C 66.167969 39.929688 66.867188 39.273438 67.230469 38.425781 C 67.59375 37.578125 67.621094 36.472656 67.074219 35.695312 C 66.796875 35.28125 66.410156 35.019531 65.921875 34.914062 L 66.109375 35.375 C 66.683594 34.359375 66.914062 32.953125 66.144531 31.972656 C 65.519531 31.171875 64.316406 30.820312 63.4375 31.402344 L 63.839844 31.808594 C 64.308594 31.09375 64.15625 30.058594 63.453125 29.546875 C 62.75 29.039062 61.71875 29.210938 61.195312 29.878906 L 61.664062 30.152344 C 61.898438 28.996094 61.4375 26.960938 59.84375 27.421875 C 58.828125 27.714844 58.378906 28.75 57.695312 29.449219 C 56.964844 30.203125 56.085938 30.824219 55.585938 31.769531 C 55.4375 32.046875 55.859375 32.292969 56.011719 32.015625 Z M 56.007812 32.019531 " fill-opacity="1" fill-rule="nonzero"/><path fill="#ffffff" d="M 33.902344 25.445312 C 33.839844 23.328125 33.945312 21.222656 34.214844 19.121094 C 35.328125 21.132812 36.28125 23.21875 37.074219 25.375 C 38.785156 23.367188 40.53125 21.324219 42.785156 19.957031 L 41.523438 25.324219 C 44.289062 24.824219 47.078125 24.546875 49.890625 24.488281 L 43.546875 31.527344 C 43.363281 31.734375 43.164062 32.003906 43.269531 32.257812 C 43.363281 32.492188 43.652344 32.5625 43.898438 32.605469 C 46.019531 32.972656 48.09375 33.511719 50.125 34.214844 C 48.453125 35.761719 46.164062 36.417969 43.96875 37.019531 C 45.363281 38.117188 46.558594 39.402344 47.554688 40.875 C 47.050781 41.25 46.34375 41.03125 45.761719 40.796875 C 43.929688 40.039062 42.136719 39.191406 40.386719 38.25 C 39.664062 40.128906 39.214844 42.070312 39.046875 44.074219 L 35.65625 38.609375 C 35.234375 39.441406 34.503906 40.066406 33.792969 40.671875 L 31.042969 42.996094 C 31.226562 41.296875 31.5 39.609375 31.863281 37.9375 L 27.40625 38.027344 C 27.105469 38.03125 26.703125 37.957031 26.675781 37.660156 C 26.65625 37.476562 26.796875 37.320312 26.929688 37.191406 C 28.171875 35.960938 29.28125 34.625 30.261719 33.175781 C 30.3125 33.113281 30.347656 33.039062 30.363281 32.957031 C 30.394531 32.679688 30.023438 32.558594 29.746094 32.535156 C 27.753906 32.351562 25.882812 31.769531 24.136719 30.792969 C 26.472656 30.265625 28.707031 29.453125 30.832031 28.351562 L 28.109375 25.585938 C 27.511719 24.976562 26.894531 24.339844 26.589844 23.539062 C 28.96875 24.214844 31.34375 24.898438 33.714844 25.59375 " fill-opacity="1" fill-rule="nonzero"/><path fill="#232323" d="M 34.03125 25.445312 C 33.980469 23.328125 34.09375 21.222656 34.363281 19.121094 L 34.09375 19.195312 C 35.195312 21.195312 36.136719 23.273438 36.914062 25.421875 C 36.953125 25.53125 37.105469 25.597656 37.195312 25.5 C 38.90625 23.519531 40.617188 21.484375 42.863281 20.089844 L 42.648438 19.921875 C 42.238281 21.714844 41.792969 23.5 41.363281 25.285156 C 41.351562 25.347656 41.363281 25.402344 41.410156 25.445312 C 41.457031 25.492188 41.507812 25.507812 41.570312 25.492188 C 44.324219 25.003906 47.097656 24.730469 49.894531 24.667969 L 49.769531 24.371094 C 48.660156 25.601562 47.550781 26.832031 46.441406 28.0625 C 45.886719 28.675781 45.332031 29.292969 44.78125 29.90625 C 44.285156 30.453125 43.726562 30.988281 43.289062 31.582031 C 43.015625 31.957031 42.992188 32.417969 43.445312 32.648438 C 43.703125 32.777344 44.019531 32.792969 44.296875 32.84375 C 44.691406 32.917969 45.082031 32.996094 45.46875 33.078125 C 47.03125 33.421875 48.566406 33.855469 50.078125 34.378906 L 50 34.09375 C 48.308594 35.628906 46.066406 36.261719 43.917969 36.855469 C 43.808594 36.886719 43.742188 37.054688 43.84375 37.136719 C 45.226562 38.230469 46.410156 39.503906 47.398438 40.964844 L 47.460938 40.722656 C 46.945312 41.0625 46.328125 40.835938 45.804688 40.625 C 45.175781 40.371094 44.554688 40.09375 43.933594 39.816406 C 42.761719 39.28125 41.605469 38.710938 40.46875 38.101562 C 40.421875 38.074219 40.371094 38.074219 40.320312 38.09375 C 40.269531 38.113281 40.234375 38.152344 40.21875 38.203125 C 39.5 40.097656 39.050781 42.054688 38.875 44.074219 L 39.1875 43.988281 C 38.058594 42.167969 36.925781 40.34375 35.796875 38.523438 C 35.765625 38.46875 35.714844 38.441406 35.652344 38.441406 C 35.589844 38.441406 35.542969 38.46875 35.507812 38.523438 C 35.042969 39.417969 34.261719 40.054688 33.5 40.695312 C 32.640625 41.425781 31.785156 42.148438 30.925781 42.875 L 31.210938 42.992188 C 31.402344 41.308594 31.679688 39.636719 32.039062 37.980469 C 32.050781 37.925781 32.042969 37.875 32.003906 37.828125 C 31.96875 37.78125 31.921875 37.757812 31.867188 37.753906 L 27.867188 37.832031 C 27.632812 37.839844 27.296875 37.902344 27.074219 37.808594 C 26.632812 37.621094 27.28125 37.09375 27.453125 36.914062 C 27.878906 36.472656 28.292969 36.019531 28.6875 35.550781 C 29.042969 35.128906 29.390625 34.691406 29.722656 34.242188 C 29.902344 33.996094 30.082031 33.75 30.257812 33.496094 C 30.375 33.324219 30.546875 33.132812 30.539062 32.910156 C 30.527344 32.5625 30.160156 32.417969 29.863281 32.367188 C 29.273438 32.269531 28.679688 32.226562 28.09375 32.101562 C 26.734375 31.800781 25.445312 31.316406 24.226562 30.640625 L 24.183594 30.960938 C 26.53125 30.421875 28.777344 29.605469 30.921875 28.507812 C 30.972656 28.480469 31.003906 28.433594 31.011719 28.375 C 31.019531 28.316406 31 28.265625 30.960938 28.222656 C 30.179688 27.429688 29.398438 26.636719 28.617188 25.84375 C 27.917969 25.132812 27.132812 24.433594 26.757812 23.492188 L 26.539062 23.707031 C 28.917969 24.378906 31.292969 25.074219 33.664062 25.769531 C 33.890625 25.835938 33.984375 25.480469 33.757812 25.414062 C 31.386719 24.730469 29.007812 24.058594 26.632812 23.367188 C 26.515625 23.335938 26.367188 23.457031 26.417969 23.585938 C 26.78125 24.5 27.460938 25.191406 28.140625 25.878906 C 28.992188 26.746094 29.84375 27.613281 30.699219 28.480469 L 30.734375 28.191406 C 28.625 29.285156 26.410156 30.097656 24.09375 30.625 C 24.019531 30.644531 23.976562 30.695312 23.96875 30.769531 C 23.957031 30.84375 23.984375 30.902344 24.050781 30.941406 C 25.648438 31.839844 27.355469 32.410156 29.175781 32.648438 C 29.433594 32.679688 29.742188 32.667969 29.988281 32.765625 C 30.238281 32.859375 30.132812 33.023438 30.027344 33.203125 C 29.933594 33.363281 29.8125 33.515625 29.703125 33.667969 C 28.957031 34.707031 28.140625 35.691406 27.25 36.609375 C 26.984375 36.882812 26.425781 37.257812 26.5 37.703125 C 26.558594 38.066406 26.949219 38.179688 27.265625 38.199219 C 27.992188 38.25 28.75 38.175781 29.480469 38.160156 L 31.863281 38.113281 L 31.691406 37.886719 C 31.332031 39.574219 31.058594 41.277344 30.875 42.992188 C 30.855469 43.148438 31.0625 43.195312 31.164062 43.113281 C 32.058594 42.351562 32.957031 41.59375 33.851562 40.832031 C 34.59375 40.207031 35.335938 39.566406 35.800781 38.691406 L 35.511719 38.691406 C 36.640625 40.511719 37.773438 42.335938 38.902344 44.15625 C 38.945312 44.230469 39.007812 44.257812 39.089844 44.234375 C 39.171875 44.210938 39.214844 44.160156 39.214844 44.074219 C 39.386719 42.082031 39.835938 40.15625 40.554688 38.292969 L 40.304688 38.394531 C 41.613281 39.101562 42.949219 39.753906 44.308594 40.359375 C 44.917969 40.628906 45.535156 40.9375 46.171875 41.128906 C 46.667969 41.285156 47.195312 41.324219 47.644531 41.027344 C 47.742188 40.96875 47.765625 40.886719 47.707031 40.789062 C 46.695312 39.3125 45.488281 38.015625 44.089844 36.902344 L 44.015625 37.183594 C 46.230469 36.578125 48.515625 35.921875 50.246094 34.339844 C 50.292969 34.292969 50.304688 34.238281 50.289062 34.175781 C 50.273438 34.113281 50.234375 34.070312 50.171875 34.054688 C 48.847656 33.597656 47.507812 33.210938 46.144531 32.894531 C 45.464844 32.738281 44.78125 32.597656 44.09375 32.472656 C 43.761719 32.410156 43.273438 32.382812 43.507812 31.855469 C 43.644531 31.550781 44.019531 31.261719 44.242188 31.015625 C 46.167969 28.878906 48.09375 26.746094 50.015625 24.613281 C 50.070312 24.558594 50.078125 24.492188 50.050781 24.421875 C 50.023438 24.351562 49.96875 24.316406 49.894531 24.316406 C 47.066406 24.371094 44.261719 24.65625 41.480469 25.164062 L 41.6875 25.371094 C 42.101562 23.578125 42.5 21.78125 42.929688 19.996094 C 42.945312 19.933594 42.925781 19.882812 42.875 19.84375 C 42.824219 19.804688 42.773438 19.800781 42.714844 19.832031 C 40.433594 21.214844 38.65625 23.230469 36.957031 25.257812 L 37.238281 25.332031 C 36.421875 23.167969 35.457031 21.074219 34.34375 19.046875 C 34.265625 18.910156 34.089844 18.988281 34.074219 19.121094 C 33.804688 21.222656 33.707031 23.328125 33.773438 25.445312 C 33.78125 25.609375 34.035156 25.609375 34.03125 25.445312 Z M 34.03125 25.445312 " fill-opacity="1" fill-rule="nonzero"/><path fill="#ffce00" d="M 49.214844 64.773438 C 48.347656 61.441406 48.773438 59.160156 48.890625 58.648438 C 49.039062 57.351562 49.765625 56.121094 51.109375 54.886719 C 52.222656 53.859375 53.652344 52.910156 55.167969 51.90625 C 57.457031 50.386719 59.820312 48.816406 61.476562 46.773438 C 63.300781 44.519531 63.898438 42.125 63.363281 39.234375 C 62.726562 35.828125 61.308594 33.351562 59.144531 31.878906 C 55.945312 29.699219 52.09375 30.410156 52.054688 30.417969 L 51.613281 28.203125 C 51.804688 28.164062 56.390625 27.292969 60.386719 29.996094 C 63.078125 31.816406 64.828125 34.785156 65.578125 38.820312 C 66.238281 42.359375 65.46875 45.425781 63.226562 48.195312 C 61.351562 50.507812 58.730469 52.25 56.414062 53.789062 C 53.785156 55.535156 51.300781 57.183594 51.128906 58.953125 L 51.117188 59.054688 L 51.09375 59.140625 C 51.070312 59.238281 50.613281 61.183594 51.398438 64.203125 Z M 49.214844 64.773438 " fill-opacity="1" fill-rule="nonzero"/><path fill="#232323" d="M 50.957031 27.941406 C 52.09375 28.042969 52.226562 29.085938 52.023438 29.730469 C 51.976562 29.875 51.578125 30.515625 51.425781 30.515625 " fill-opacity="1" fill-rule="nonzero"/><path fill="#232323" d="M 50.894531 28.167969 C 51.4375 28.28125 51.796875 28.621094 51.792969 29.195312 C 51.796875 29.371094 51.757812 29.542969 51.683594 29.707031 C 51.628906 29.800781 51.574219 29.890625 51.511719 29.980469 C 51.480469 30.027344 51.335938 30.226562 51.34375 30.226562 C 50.96875 30.339844 51.128906 30.871094 51.5 30.804688 C 51.816406 30.75 52.054688 30.347656 52.195312 30.09375 C 52.359375 29.800781 52.429688 29.488281 52.40625 29.15625 C 52.367188 28.308594 51.800781 27.738281 50.953125 27.710938 C 50.695312 27.703125 50.632812 28.113281 50.890625 28.167969 Z M 50.894531 28.167969 " fill-opacity="1" fill-rule="nonzero"/><path fill="#ffce00" d="M 42.492188 25.886719 L 46.644531 25.433594 C 46.941406 25.402344 47.234375 25.398438 47.53125 25.425781 C 47.828125 25.453125 48.121094 25.507812 48.40625 25.589844 C 48.691406 25.671875 48.964844 25.785156 49.230469 25.921875 C 49.492188 26.058594 49.738281 26.222656 49.972656 26.40625 C 50.203125 26.59375 50.414062 26.800781 50.605469 27.027344 C 50.796875 27.257812 50.964844 27.5 51.105469 27.761719 C 51.25 28.023438 51.367188 28.292969 51.457031 28.578125 C 51.542969 28.863281 51.605469 29.152344 51.636719 29.445312 C 51.667969 29.742188 51.671875 30.039062 51.648438 30.335938 C 51.621094 30.632812 51.566406 30.921875 51.484375 31.207031 C 51.398438 31.492188 51.289062 31.765625 51.152344 32.03125 C 51.015625 32.292969 50.851562 32.542969 50.664062 32.773438 C 50.480469 33.007812 50.273438 33.21875 50.042969 33.410156 C 49.816406 33.597656 49.574219 33.765625 49.3125 33.910156 C 49.050781 34.050781 48.777344 34.167969 48.496094 34.257812 C 48.210938 34.347656 47.921875 34.40625 47.625 34.441406 L 43.472656 34.890625 Z M 42.492188 25.886719 " fill-opacity="1" fill-rule="nonzero"/><path fill="#ffffff" d="M 19.015625 41.242188 C 18.257812 40.269531 16.925781 39.816406 15.988281 38.96875 C 15.523438 38.539062 15.046875 38.054688 14.429688 37.90625 C 12.804688 37.523438 12.757812 39.511719 13.179688 40.496094 C 12.667969 40.007812 11.757812 40.03125 11.269531 40.546875 C 10.785156 41.058594 10.808594 41.964844 11.316406 42.453125 C 10.425781 42.039062 9.300781 42.710938 9.007812 43.648438 C 8.71875 44.589844 9.109375 45.628906 9.761719 46.367188 C 9.152344 46.589844 8.777344 47.257812 8.769531 47.910156 C 8.734375 50.417969 11.589844 51.53125 13.695312 51.351562 C 15.269531 51.21875 16.753906 50.488281 17.957031 49.464844 C 19.984375 47.75 21.257812 45.160156 21.339844 42.503906 C 21.363281 41.882812 21.296875 41.265625 21.144531 40.664062 C 20.988281 40.058594 20.753906 39.488281 20.4375 38.953125 C 20.121094 38.417969 19.734375 37.9375 19.277344 37.511719 C 18.824219 37.085938 18.316406 36.730469 17.761719 36.449219 C 16.820312 35.96875 15.789062 35.605469 14.730469 35.582031 C 14.09375 35.574219 13.484375 35.691406 12.894531 35.933594 C 12.453125 36.109375 12.09375 36.304688 11.691406 35.933594 C 11.335938 35.605469 11.378906 35.039062 11.035156 34.699219 C 10.675781 34.347656 10.070312 34.292969 9.628906 34.507812 C 7.902344 35.355469 7.910156 38.851562 7.085938 40.429688 C 6.441406 41.660156 5.730469 42.851562 4.953125 44.007812 C 4.667969 44.433594 4.371094 45.082031 4 45.429688 C 3.601562 45.804688 3.023438 45.890625 2.601562 46.261719 C 1.820312 46.941406 1.664062 48.148438 2.011719 49.125 C 2.355469 50.101562 3.109375 50.875 3.925781 51.511719 C 5.050781 52.382812 6.296875 53.03125 7.65625 53.460938 C 9.015625 53.890625 10.40625 54.070312 11.832031 54 " fill-opacity="1" fill-rule="nonzero"/><path fill="#232323" d="M 19.1875 41.070312 C 18.523438 40.238281 17.535156 39.789062 16.679688 39.1875 C 15.863281 38.613281 15.230469 37.671875 14.152344 37.59375 C 12.574219 37.480469 12.476562 39.511719 12.910156 40.570312 L 13.378906 40.296875 C 12.730469 39.730469 11.683594 39.703125 11.066406 40.34375 C 10.449219 40.984375 10.511719 42.035156 11.109375 42.660156 L 11.394531 42.171875 C 10.421875 41.757812 9.292969 42.359375 8.84375 43.261719 C 8.289062 44.386719 8.792969 45.691406 9.546875 46.585938 L 9.683594 46.070312 C 8.644531 46.496094 8.316406 47.585938 8.511719 48.625 C 8.679688 49.519531 9.257812 50.253906 9.988281 50.765625 C 11.699219 51.964844 14.015625 51.941406 15.882812 51.160156 C 20.234375 49.34375 23.210938 43.515625 20.933594 39.097656 C 19.832031 36.960938 17.523438 35.484375 15.144531 35.238281 C 14.476562 35.167969 13.820312 35.234375 13.179688 35.4375 C 12.894531 35.523438 12.617188 35.683594 12.328125 35.746094 C 11.960938 35.824219 11.824219 35.511719 11.71875 35.214844 C 11.535156 34.6875 11.277344 34.273438 10.726562 34.085938 C 10.210938 33.917969 9.726562 33.980469 9.269531 34.273438 C 8.519531 34.742188 8.128906 35.589844 7.863281 36.398438 C 7.558594 37.308594 7.394531 38.257812 7.140625 39.183594 C 6.820312 40.335938 6.167969 41.359375 5.550781 42.371094 C 5.1875 42.964844 4.777344 43.542969 4.421875 44.140625 C 4.09375 44.699219 3.828125 45.175781 3.222656 45.464844 C 2.695312 45.71875 2.242188 45.972656 1.914062 46.476562 C 1.617188 46.949219 1.464844 47.460938 1.460938 48.019531 C 1.425781 49.246094 2.097656 50.335938 2.949219 51.164062 C 4.792969 52.960938 7.347656 54.023438 9.882812 54.308594 C 10.535156 54.378906 11.183594 54.394531 11.835938 54.359375 C 12.300781 54.332031 12.304688 53.617188 11.835938 53.632812 C 9.402344 53.730469 7.152344 53.132812 5.082031 51.847656 C 4.125 51.246094 3.148438 50.496094 2.597656 49.488281 C 2.117188 48.613281 2.015625 47.347656 2.792969 46.597656 C 3.164062 46.242188 3.703125 46.136719 4.109375 45.828125 C 4.519531 45.523438 4.773438 45.058594 5.023438 44.621094 C 5.671875 43.511719 6.410156 42.460938 7.03125 41.335938 C 7.464844 40.566406 7.789062 39.753906 8 38.894531 C 8.203125 38.050781 8.371094 37.195312 8.671875 36.378906 C 8.90625 35.746094 9.328125 34.84375 10.09375 34.757812 C 10.753906 34.683594 10.894531 35.171875 11.101562 35.667969 C 11.277344 36.105469 11.640625 36.484375 12.136719 36.507812 C 12.652344 36.535156 13.152344 36.207031 13.640625 36.078125 C 14.242188 35.929688 14.847656 35.910156 15.460938 36.019531 C 16.644531 36.234375 17.707031 36.710938 18.652344 37.449219 C 20.300781 38.757812 21.117188 40.789062 20.964844 42.871094 C 20.804688 45.097656 19.765625 47.25 18.164062 48.804688 C 16.664062 50.261719 14.539062 51.296875 12.40625 50.957031 C 10.832031 50.707031 9.011719 49.6875 9.101562 47.859375 C 9.105469 47.589844 9.179688 47.347656 9.328125 47.125 C 9.476562 46.902344 9.671875 46.738281 9.917969 46.632812 C 10.113281 46.546875 10.09375 46.28125 9.976562 46.148438 C 9.394531 45.476562 8.964844 44.449219 9.355469 43.570312 C 9.671875 42.863281 10.5 42.425781 11.238281 42.730469 C 11.523438 42.851562 11.707031 42.433594 11.523438 42.242188 C 11.140625 41.847656 11.085938 41.164062 11.472656 40.746094 C 11.859375 40.328125 12.558594 40.328125 12.976562 40.6875 C 13.164062 40.851562 13.566406 40.699219 13.445312 40.417969 C 13.066406 39.507812 13.109375 37.65625 14.578125 38.230469 C 15.019531 38.402344 15.371094 38.753906 15.714844 39.066406 C 16.027344 39.347656 16.363281 39.601562 16.71875 39.828125 C 17.464844 40.308594 18.269531 40.714844 18.839844 41.414062 C 19.039062 41.660156 19.382812 41.3125 19.1875 41.066406 Z M 19.1875 41.070312 " fill-opacity="1" fill-rule="nonzero"/><path fill="#ffce00" d="M 42.359375 25.023438 C 42.648438 24.992188 42.933594 24.988281 43.222656 25.015625 C 43.511719 25.039062 43.792969 25.09375 44.070312 25.175781 C 44.347656 25.257812 44.613281 25.363281 44.871094 25.496094 C 45.128906 25.628906 45.367188 25.789062 45.59375 25.96875 C 45.820312 26.148438 46.023438 26.351562 46.210938 26.574219 C 46.394531 26.792969 46.558594 27.03125 46.695312 27.285156 C 46.835938 27.539062 46.949219 27.804688 47.035156 28.078125 C 47.121094 28.355469 47.179688 28.636719 47.210938 28.921875 L 47.433594 30.960938 C 47.464844 31.25 47.46875 31.539062 47.445312 31.824219 C 47.417969 32.113281 47.363281 32.394531 47.285156 32.671875 C 47.203125 32.949219 47.097656 33.21875 46.960938 33.472656 C 46.828125 33.730469 46.671875 33.972656 46.492188 34.195312 C 46.308594 34.421875 46.109375 34.628906 45.886719 34.8125 C 45.664062 35 45.425781 35.160156 45.175781 35.300781 C 44.921875 35.4375 44.65625 35.550781 44.378906 35.636719 C 44.105469 35.726562 43.824219 35.785156 43.535156 35.816406 Z M 42.359375 25.023438 " fill-opacity="1" fill-rule="nonzero"/><path fill="#ffce00" d="M 45.246094 30.167969 C 45.285156 30.523438 45.308594 30.875 45.320312 31.226562 C 45.328125 31.578125 45.320312 31.917969 45.300781 32.253906 C 45.277344 32.585938 45.242188 32.90625 45.191406 33.207031 C 45.140625 33.511719 45.074219 33.796875 44.996094 34.058594 C 44.917969 34.320312 44.824219 34.554688 44.722656 34.765625 C 44.621094 34.976562 44.507812 35.15625 44.382812 35.308594 C 44.257812 35.457031 44.128906 35.574219 43.988281 35.660156 C 43.847656 35.746094 43.703125 35.796875 43.554688 35.8125 C 43.40625 35.828125 43.253906 35.8125 43.097656 35.757812 C 42.945312 35.703125 42.789062 35.617188 42.636719 35.496094 C 42.484375 35.378906 42.335938 35.226562 42.1875 35.042969 C 42.042969 34.859375 41.902344 34.648438 41.769531 34.410156 C 41.636719 34.167969 41.511719 33.90625 41.398438 33.621094 C 41.28125 33.335938 41.179688 33.03125 41.085938 32.710938 C 40.992188 32.390625 40.910156 32.058594 40.84375 31.714844 C 40.777344 31.371094 40.726562 31.019531 40.6875 30.667969 C 40.648438 30.3125 40.625 29.960938 40.617188 29.609375 C 40.605469 29.257812 40.613281 28.914062 40.636719 28.582031 C 40.65625 28.25 40.691406 27.929688 40.742188 27.625 C 40.796875 27.324219 40.859375 27.039062 40.9375 26.777344 C 41.015625 26.515625 41.109375 26.28125 41.210938 26.070312 C 41.3125 25.859375 41.425781 25.679688 41.550781 25.527344 C 41.675781 25.378906 41.804688 25.257812 41.945312 25.175781 C 42.085938 25.089844 42.230469 25.039062 42.378906 25.023438 C 42.527344 25.003906 42.679688 25.023438 42.835938 25.078125 C 42.988281 25.128906 43.144531 25.21875 43.296875 25.335938 C 43.449219 25.457031 43.597656 25.609375 43.746094 25.792969 C 43.890625 25.976562 44.03125 26.1875 44.164062 26.425781 C 44.296875 26.664062 44.421875 26.929688 44.535156 27.214844 C 44.652344 27.5 44.757812 27.800781 44.847656 28.125 C 44.941406 28.445312 45.023438 28.777344 45.089844 29.121094 C 45.15625 29.464844 45.210938 29.816406 45.246094 30.167969 Z M 45.246094 30.167969 " fill-opacity="1" fill-rule="nonzero"/><path fill="#232323" d="M 41.746094 28.167969 L 43.042969 28.027344 C 43.171875 28.011719 43.285156 28.046875 43.386719 28.125 C 43.484375 28.207031 43.542969 28.3125 43.558594 28.441406 C 43.570312 28.566406 43.539062 28.683594 43.457031 28.78125 C 43.375 28.882812 43.273438 28.941406 43.144531 28.953125 L 41.847656 29.09375 C 41.71875 29.109375 41.605469 29.074219 41.503906 28.996094 C 41.402344 28.914062 41.347656 28.808594 41.332031 28.683594 C 41.320312 28.554688 41.351562 28.441406 41.433594 28.339844 C 41.511719 28.238281 41.617188 28.183594 41.746094 28.167969 Z M 41.746094 28.167969 " fill-opacity="1" fill-rule="nonzero"/><path fill="#232323" d="M 43.144531 28.804688 L 42.347656 28.894531 C 42.207031 28.914062 42.066406 28.929688 41.929688 28.9375 C 41.902344 28.9375 41.871094 28.949219 41.84375 28.949219 C 41.503906 28.925781 41.320312 28.558594 41.660156 28.367188 C 41.894531 28.234375 42.277344 28.261719 42.542969 28.234375 C 42.679688 28.210938 42.820312 28.195312 42.960938 28.1875 C 42.984375 28.1875 43.015625 28.179688 43.042969 28.179688 C 43.484375 28.207031 43.523438 28.714844 43.101562 28.8125 C 42.914062 28.855469 42.992188 29.144531 43.179688 29.101562 C 43.339844 29.074219 43.46875 28.992188 43.566406 28.863281 C 43.660156 28.730469 43.699219 28.585938 43.683594 28.425781 C 43.664062 28.265625 43.59375 28.128906 43.46875 28.027344 C 43.34375 27.921875 43.203125 27.871094 43.039062 27.878906 C 42.597656 27.890625 42.15625 27.9375 41.722656 28.023438 C 40.996094 28.160156 41.023438 29.222656 41.789062 29.246094 C 42.230469 29.261719 42.703125 29.15625 43.140625 29.109375 C 43.332031 29.085938 43.335938 28.785156 43.144531 28.804688 Z M 43.144531 28.804688 " fill-opacity="1" fill-rule="nonzero"/><path fill="#232323" d="M 42.078125 31.210938 L 43.375 31.066406 C 43.503906 31.054688 43.617188 31.085938 43.71875 31.167969 C 43.816406 31.25 43.875 31.351562 43.886719 31.480469 C 43.902344 31.609375 43.871094 31.722656 43.789062 31.824219 C 43.707031 31.921875 43.605469 31.980469 43.476562 31.996094 L 42.179688 32.136719 C 42.050781 32.148438 41.9375 32.117188 41.835938 32.035156 C 41.734375 31.957031 41.679688 31.851562 41.664062 31.722656 C 41.648438 31.59375 41.683594 31.480469 41.765625 31.378906 C 41.84375 31.28125 41.949219 31.222656 42.078125 31.210938 Z M 42.078125 31.210938 " fill-opacity="1" fill-rule="nonzero"/><path fill="#232323" d="M 43.472656 31.847656 L 42.675781 31.933594 C 42.539062 31.957031 42.398438 31.972656 42.257812 31.980469 C 42.230469 31.980469 42.203125 31.988281 42.175781 31.988281 C 41.832031 31.96875 41.652344 31.597656 41.992188 31.40625 C 42.226562 31.277344 42.609375 31.304688 42.871094 31.273438 C 43.011719 31.253906 43.152344 31.238281 43.289062 31.230469 C 43.316406 31.230469 43.347656 31.21875 43.375 31.21875 C 43.816406 31.246094 43.855469 31.757812 43.433594 31.851562 C 43.246094 31.894531 43.324219 32.1875 43.511719 32.144531 C 43.671875 32.113281 43.800781 32.035156 43.894531 31.902344 C 43.992188 31.773438 44.03125 31.625 44.011719 31.464844 C 43.996094 31.304688 43.921875 31.171875 43.800781 31.066406 C 43.675781 30.960938 43.535156 30.914062 43.371094 30.917969 C 42.929688 30.929688 42.488281 30.980469 42.054688 31.0625 C 41.324219 31.203125 41.355469 32.261719 42.121094 32.289062 C 42.5625 32.304688 43.03125 32.195312 43.472656 32.148438 C 43.664062 32.128906 43.667969 31.824219 43.472656 31.847656 Z M 43.472656 31.847656 " fill-opacity="1" fill-rule="nonzero"/><g clip-path="url(#7b21067777)"><path fill="#ffce00" d="M 13.5 71.589844 L 11.246094 71.605469 C 11.226562 68.863281 12.234375 65.734375 14.234375 62.308594 C 14.859375 61.242188 15.539062 60.214844 16.265625 59.21875 C 15.285156 58.308594 14.472656 57.269531 13.832031 56.097656 C 12.351562 53.371094 11.851562 49.921875 12.398438 46.125 C 12.757812 43.628906 13.492188 41.449219 14.585938 39.660156 C 15.507812 38.144531 16.527344 36.570312 17.714844 35.296875 C 18.707031 34.238281 20.933594 32.332031 22.996094 31.902344 L 23.457031 34.109375 C 22.214844 34.367188 20.421875 35.710938 19.363281 36.84375 C 18.304688 37.980469 17.371094 39.425781 16.511719 40.839844 C 15.582031 42.367188 14.949219 44.253906 14.636719 46.453125 C 14.304688 48.757812 14.242188 52.121094 15.820312 55.023438 C 16.3125 55.917969 16.925781 56.722656 17.664062 57.429688 C 18.003906 57.019531 18.324219 56.652344 18.605469 56.347656 C 21.070312 53.695312 23.609375 52.296875 26.160156 52.199219 C 26.53125 52.183594 27.019531 52.191406 27.519531 52.382812 C 28.257812 52.660156 28.851562 53.269531 29.238281 54.144531 C 29.773438 55.359375 29.777344 56.773438 29.242188 58.125 C 28.632812 59.660156 27.390625 60.949219 25.914062 61.570312 C 24.671875 62.097656 23.234375 62.246094 21.765625 62.007812 C 20.433594 61.78125 19.199219 61.308594 18.058594 60.589844 C 15.859375 63.605469 13.476562 67.890625 13.5 71.589844 Z M 19.457031 58.792969 C 20.9375 59.664062 22.578125 60.011719 23.984375 59.785156 C 24.347656 59.726562 24.699219 59.628906 25.035156 59.484375 C 25.964844 59.097656 26.753906 58.273438 27.140625 57.289062 C 27.453125 56.507812 27.460938 55.710938 27.171875 55.054688 C 27.039062 54.761719 26.867188 54.546875 26.714844 54.488281 C 26.582031 54.4375 26.324219 54.449219 26.246094 54.453125 C 24.316406 54.523438 22.300781 55.679688 20.261719 57.878906 C 20.011719 58.144531 19.742188 58.453125 19.457031 58.792969 Z M 19.457031 58.792969 " fill-opacity="1" fill-rule="nonzero"/></g><path fill="#232323" d="M 35.644531 32.503906 L 31.699219 33.378906 L 31.457031 32.285156 L 35.230469 31.449219 C 35.34375 31.425781 35.441406 31.453125 35.527344 31.527344 L 35.746094 31.710938 C 36.023438 31.953125 35.957031 32.433594 35.644531 32.503906 Z M 35.644531 32.503906 " fill-opacity="1" fill-rule="nonzero"/><path fill="#232323" d="M 35.601562 32.359375 L 31.660156 33.234375 L 31.84375 33.339844 L 31.601562 32.246094 L 31.496094 32.429688 L 33.722656 31.9375 L 34.992188 31.65625 C 35.078125 31.625 35.167969 31.605469 35.261719 31.597656 C 35.542969 31.609375 36.058594 32.203125 35.601562 32.359375 C 35.421875 32.421875 35.5 32.714844 35.679688 32.648438 C 36.335938 32.421875 36.039062 31.683594 35.601562 31.402344 C 35.273438 31.1875 34.816406 31.386719 34.464844 31.464844 L 31.414062 32.140625 C 31.320312 32.167969 31.285156 32.230469 31.308594 32.324219 L 31.550781 33.417969 C 31.578125 33.511719 31.640625 33.546875 31.738281 33.523438 L 35.683594 32.65625 C 35.871094 32.609375 35.792969 32.316406 35.601562 32.359375 Z M 35.601562 32.359375 " fill-opacity="1" fill-rule="nonzero"/><path fill="#232323" d="M 34.410156 29.53125 L 30.46875 30.40625 L 30.226562 29.3125 L 34 28.476562 C 34.113281 28.453125 34.210938 28.480469 34.296875 28.554688 L 34.515625 28.738281 C 34.792969 28.972656 34.722656 29.460938 34.410156 29.53125 Z M 34.410156 29.53125 " fill-opacity="1" fill-rule="nonzero"/><path fill="#232323" d="M 34.371094 29.386719 L 30.429688 30.257812 L 30.613281 30.363281 L 30.375 29.269531 L 30.269531 29.457031 L 32.492188 28.964844 L 33.761719 28.683594 C 33.851562 28.652344 33.941406 28.632812 34.035156 28.621094 C 34.316406 28.632812 34.828125 29.226562 34.375 29.386719 C 34.191406 29.449219 34.269531 29.738281 34.453125 29.675781 C 35.105469 29.445312 34.8125 28.710938 34.375 28.425781 C 34.046875 28.210938 33.585938 28.410156 33.238281 28.488281 L 30.1875 29.164062 C 30.09375 29.195312 30.058594 29.257812 30.082031 29.351562 L 30.324219 30.445312 C 30.351562 30.535156 30.414062 30.570312 30.507812 30.546875 L 34.453125 29.671875 C 34.640625 29.632812 34.558594 29.34375 34.371094 29.386719 Z M 34.371094 29.386719 " fill-opacity="1" fill-rule="nonzero"/><path fill="#ffce00" d="M 30.988281 36.304688 L 26.910156 37.210938 C 26.621094 37.273438 26.328125 37.308594 26.03125 37.316406 C 25.734375 37.324219 25.4375 37.300781 25.144531 37.25 C 24.851562 37.195312 24.566406 37.117188 24.289062 37.007812 C 24.011719 36.902344 23.75 36.765625 23.5 36.609375 C 23.246094 36.449219 23.015625 36.265625 22.800781 36.058594 C 22.585938 35.855469 22.390625 35.628906 22.222656 35.386719 C 22.050781 35.140625 21.90625 34.882812 21.785156 34.613281 C 21.667969 34.339844 21.574219 34.058594 21.511719 33.769531 C 21.445312 33.476562 21.410156 33.183594 21.402344 32.886719 C 21.398438 32.589844 21.421875 32.292969 21.472656 32 C 21.523438 31.707031 21.605469 31.421875 21.710938 31.144531 C 21.820312 30.867188 21.953125 30.605469 22.113281 30.355469 C 22.273438 30.101562 22.457031 29.871094 22.660156 29.65625 C 22.867188 29.441406 23.089844 29.25 23.335938 29.078125 C 23.578125 28.90625 23.835938 28.761719 24.109375 28.644531 C 24.382812 28.523438 24.664062 28.429688 24.953125 28.367188 L 29.03125 27.464844 Z M 30.988281 36.304688 " fill-opacity="1" fill-rule="nonzero"/><path fill="#ffce00" d="M 32.273438 31.398438 C 31.628906 28.488281 30.109375 26.34375 28.878906 26.59375 L 28.078125 26.769531 C 27.613281 26.871094 27.1875 27.058594 26.800781 27.332031 C 26.410156 27.605469 26.085938 27.941406 25.832031 28.34375 C 25.578125 28.742188 25.40625 29.175781 25.324219 29.644531 C 25.242188 30.113281 25.25 30.578125 25.355469 31.042969 L 26.152344 34.644531 C 26.253906 35.105469 26.441406 35.535156 26.714844 35.925781 C 26.988281 36.3125 27.324219 36.636719 27.726562 36.890625 C 28.125 37.148438 28.5625 37.316406 29.03125 37.398438 C 29.5 37.480469 29.964844 37.46875 30.429688 37.367188 L 31.226562 37.191406 C 32.449219 36.894531 32.917969 34.3125 32.273438 31.398438 Z M 32.273438 31.398438 " fill-opacity="1" fill-rule="nonzero"/><path fill="#ffce00" d="M 20.578125 33.023438 C 20.734375 33.089844 20.847656 33.234375 20.941406 33.382812 C 21.082031 33.613281 21.191406 33.855469 21.261719 34.117188 C 21.355469 34.460938 21.421875 34.875 21.722656 35.035156 C 21.832031 35.089844 21.941406 35.109375 22.058594 35.09375 C 22.441406 35.054688 22.761719 34.742188 22.890625 34.355469 C 23.019531 33.972656 22.96875 33.535156 22.8125 33.160156 C 22.585938 32.613281 22.074219 32.144531 21.523438 32.195312 C 21.292969 32.226562 21.085938 32.3125 20.898438 32.453125 C 20.765625 32.546875 20.628906 32.679688 20.632812 32.851562 " fill-opacity="1" fill-rule="nonzero"/><path fill="#232323" d="M 41.671875 7.589844 C 41.199219 9.566406 40.722656 11.546875 40.242188 13.523438 C 40.203125 13.6875 40.453125 13.757812 40.492188 13.59375 C 40.957031 11.613281 41.421875 9.632812 41.890625 7.652344 C 41.921875 7.511719 41.707031 7.453125 41.671875 7.59375 Z M 41.671875 7.589844 " fill-opacity="1" fill-rule="nonzero"/><path fill="#232323" d="M 43.4375 12.488281 L 43.640625 12.179688 C 43.726562 12.050781 43.519531 11.933594 43.433594 12.058594 L 43.230469 12.367188 C 43.144531 12.496094 43.351562 12.617188 43.4375 12.488281 Z M 43.4375 12.488281 " fill-opacity="1" fill-rule="nonzero"/><path fill="#232323" d="M 50.105469 19.628906 C 51.019531 19.160156 51.878906 18.542969 52.75 18 C 53.617188 17.453125 54.503906 16.898438 55.378906 16.34375 C 55.527344 16.246094 55.390625 16.007812 55.238281 16.101562 C 54.359375 16.648438 53.488281 17.210938 52.613281 17.765625 C 51.738281 18.320312 50.820312 18.832031 50.003906 19.453125 C 49.949219 19.488281 49.941406 19.535156 49.972656 19.589844 C 50.003906 19.644531 50.046875 19.65625 50.105469 19.628906 Z M 50.105469 19.628906 " fill-opacity="1" fill-rule="nonzero"/><path fill="#232323" d="M 57.070312 13.878906 L 57.378906 13.777344 C 57.53125 13.726562 57.464844 13.480469 57.308594 13.53125 L 57.003906 13.636719 C 56.847656 13.6875 56.914062 13.929688 57.070312 13.878906 Z M 57.070312 13.878906 " fill-opacity="1" fill-rule="nonzero"/><path fill="#232323" d="M 20.65625 10.355469 C 22.890625 12.65625 25.097656 14.980469 27.34375 17.265625 C 27.480469 17.402344 27.691406 17.191406 27.558594 17.054688 C 25.328125 14.75 23.0625 12.480469 20.816406 10.191406 C 20.714844 10.085938 20.554688 10.246094 20.65625 10.355469 Z M 20.65625 10.355469 " fill-opacity="1" fill-rule="nonzero"/><path fill="#232323" d="M 23.902344 10.003906 C 23.984375 9.996094 24.023438 9.953125 24.023438 9.871094 C 24.023438 9.789062 23.984375 9.742188 23.902344 9.738281 C 23.816406 9.742188 23.777344 9.789062 23.777344 9.871094 C 23.777344 9.953125 23.816406 9.996094 23.902344 10.003906 Z M 23.902344 10.003906 " fill-opacity="1" fill-rule="nonzero"/><path fill="#232323" d="M 10.6875 24.144531 C 12.792969 24.515625 14.914062 24.695312 17.050781 24.691406 C 17.234375 24.691406 17.234375 24.398438 17.050781 24.402344 C 14.933594 24.425781 12.832031 24.269531 10.746094 23.933594 C 10.605469 23.910156 10.546875 24.121094 10.6875 24.144531 Z M 10.6875 24.144531 " fill-opacity="1" fill-rule="nonzero"/><path fill="#232323" d="M 16.949219 20.917969 C 17.320312 21.230469 17.691406 21.542969 18.074219 21.835938 C 18.203125 21.9375 18.390625 21.761719 18.261719 21.648438 C 17.890625 21.335938 17.511719 21.035156 17.132812 20.730469 C 17.003906 20.625 16.816406 20.808594 16.949219 20.917969 Z M 16.949219 20.917969 " fill-opacity="1" fill-rule="nonzero"/><path fill="#232323" d="M 21.847656 51.417969 C 22.195312 50.363281 22.65625 49.359375 23.226562 48.410156 C 23.316406 48.257812 23.082031 48.121094 22.992188 48.273438 C 22.40625 49.242188 21.941406 50.269531 21.605469 51.351562 C 21.558594 51.503906 21.792969 51.566406 21.839844 51.417969 Z M 21.847656 51.417969 " fill-opacity="1" fill-rule="nonzero"/><path fill="#232323" d="M 35.035156 50.0625 C 35.101562 51.734375 35.15625 53.402344 35.230469 55.074219 C 35.238281 55.242188 35.5 55.242188 35.492188 55.074219 C 35.433594 53.402344 35.347656 51.734375 35.277344 50.0625 C 35.273438 49.90625 35.03125 49.90625 35.035156 50.0625 Z M 35.035156 50.0625 " fill-opacity="1" fill-rule="nonzero"/><path fill="#232323" d="M 46.1875 47.164062 C 46.675781 47.808594 47.230469 48.394531 47.84375 48.925781 C 47.972656 49.035156 48.160156 48.847656 48.03125 48.738281 C 47.421875 48.21875 46.875 47.644531 46.382812 47.011719 C 46.296875 46.898438 46.097656 47.050781 46.1875 47.164062 Z M 46.1875 47.164062 " fill-opacity="1" fill-rule="nonzero"/><path fill="#232323" d="M 47.054688 29.90625 C 47.34375 31.277344 47.066406 32.585938 46.542969 33.859375 C 46.421875 34.15625 46.921875 34.367188 47.0625 34.078125 C 47.71875 32.761719 47.765625 31.210938 47.457031 29.792969 C 47.398438 29.53125 47 29.644531 47.054688 29.90625 Z M 47.054688 29.90625 " fill-opacity="1" fill-rule="nonzero"/><path fill="#232323" d="M 46.929688 28.890625 C 47.246094 28.890625 47.246094 28.398438 46.929688 28.398438 C 46.613281 28.398438 46.613281 28.890625 46.929688 28.890625 Z M 46.929688 28.890625 " fill-opacity="1" fill-rule="nonzero"/><path fill="#232323" d="M 51.875 30.769531 C 53.515625 30.722656 55.199219 30.671875 56.769531 31.214844 C 58.066406 31.664062 59.199219 32.492188 60.117188 33.507812 C 61.074219 34.566406 61.78125 35.847656 62.316406 37.164062 C 62.882812 38.558594 63.324219 40.101562 63.15625 41.613281 C 62.824219 44.617188 60.757812 47.261719 58.515625 49.144531 C 56.136719 51.140625 53.230469 52.429688 51 54.609375 C 49.859375 55.722656 48.941406 57.054688 48.488281 58.589844 C 47.992188 60.230469 48.023438 61.859375 48.582031 63.476562 C 48.714844 63.847656 49.300781 63.691406 49.175781 63.316406 C 48.65625 61.757812 48.652344 60.199219 49.164062 58.640625 C 49.625 57.207031 50.535156 55.984375 51.621094 54.960938 C 53.945312 52.757812 56.949219 51.441406 59.347656 49.324219 C 61.582031 47.355469 63.507812 44.644531 63.832031 41.617188 C 63.992188 40.109375 63.582031 38.566406 63.035156 37.175781 C 62.511719 35.84375 61.839844 34.566406 60.921875 33.460938 C 59.945312 32.285156 58.695312 31.3125 57.261719 30.765625 C 55.542969 30.109375 53.671875 30.191406 51.875 30.296875 C 51.570312 30.3125 51.566406 30.777344 51.875 30.769531 Z M 51.875 30.769531 " fill-opacity="1" fill-rule="nonzero"/><path fill="#232323" d="M 44.335938 27.496094 C 44.726562 28.898438 45.101562 30.398438 45.0625 31.867188 C 45.03125 33.007812 44.726562 34.765625 43.511719 35.257812 C 43.125 35.414062 43.285156 36.050781 43.691406 35.898438 C 45.058594 35.382812 45.5625 33.746094 45.679688 32.414062 C 45.835938 30.65625 45.300781 29.019531 44.714844 27.386719 C 44.628906 27.152344 44.265625 27.246094 44.335938 27.492188 Z M 44.335938 27.496094 " fill-opacity="1" fill-rule="nonzero"/><path fill="#ffffff" d="M 55.792969 31.894531 C 56.355469 30.796875 57.585938 30.105469 58.34375 29.097656 C 58.730469 28.589844 59.101562 28.027344 59.683594 27.765625 C 61.210938 27.089844 61.625 29.035156 61.390625 30.078125 C 61.804688 29.507812 62.699219 29.363281 63.273438 29.777344 C 63.847656 30.191406 63.992188 31.085938 63.582031 31.660156 C 64.378906 31.089844 65.609375 31.539062 66.070312 32.410156 C 66.53125 33.277344 66.339844 34.375 65.835938 35.21875 C 66.480469 35.328125 66.96875 35.914062 67.097656 36.550781 C 67.59375 39.011719 64.996094 40.632812 62.894531 40.847656 C 61.324219 41.007812 59.726562 40.5625 58.355469 39.78125 C 56.046875 38.464844 54.316406 36.160156 53.742188 33.566406 " fill-opacity="1" fill-rule="nonzero"/><path fill="#232323" d="M 53.261719 33.035156 C 53.441406 34.132812 53.792969 35.171875 54.320312 36.148438 C 54.847656 37.128906 55.519531 37.996094 56.335938 38.75 C 58.425781 40.683594 61.566406 41.898438 64.363281 40.871094 C 65.445312 40.472656 66.5 39.785156 67.082031 38.761719 C 67.671875 37.726562 67.742188 36.167969 66.785156 35.3125 C 66.539062 35.089844 66.253906 34.945312 65.925781 34.878906 L 66.136719 35.398438 C 66.738281 34.359375 66.957031 32.929688 66.152344 31.929688 C 65.519531 31.148438 64.289062 30.789062 63.417969 31.394531 L 63.84375 31.816406 C 64.328125 31.085938 64.140625 30.027344 63.421875 29.519531 C 62.6875 29 61.65625 29.246094 61.132812 29.933594 L 61.667969 30.160156 C 61.863281 29.242188 61.695312 27.765625 60.652344 27.410156 C 60.027344 27.195312 59.339844 27.554688 58.898438 27.984375 C 58.613281 28.261719 58.386719 28.589844 58.152344 28.90625 C 57.910156 29.222656 57.640625 29.515625 57.34375 29.785156 C 56.699219 30.394531 55.992188 30.972656 55.574219 31.773438 C 55.425781 32.054688 55.847656 32.300781 55.996094 32.019531 C 56.324219 31.414062 56.832031 30.949219 57.339844 30.492188 C 57.859375 30.035156 58.335938 29.53125 58.761719 28.984375 C 59.117188 28.515625 59.574219 27.941406 60.21875 27.90625 C 60.625 27.882812 60.878906 28.203125 61.007812 28.554688 C 61.175781 29.027344 61.210938 29.507812 61.105469 30 C 61.050781 30.257812 61.402344 30.535156 61.597656 30.285156 C 61.941406 29.84375 62.617188 29.667969 63.09375 30.015625 C 63.570312 30.359375 63.628906 31.042969 63.3125 31.5 C 63.136719 31.753906 63.484375 32.09375 63.738281 31.921875 C 64.367188 31.503906 65.238281 31.796875 65.660156 32.386719 C 66.21875 33.167969 65.972656 34.265625 65.527344 35.035156 C 65.421875 35.21875 65.511719 35.511719 65.742188 35.554688 C 66.910156 35.789062 66.984375 37.328125 66.558594 38.210938 C 66.113281 39.136719 65.199219 39.777344 64.257812 40.136719 C 61.714844 41.113281 58.84375 40.042969 56.917969 38.277344 C 56.128906 37.5625 55.484375 36.730469 54.980469 35.789062 C 54.480469 34.847656 54.152344 33.847656 53.996094 32.789062 " fill-opacity="1" fill-rule="nonzero"/><path fill="#232323" d="M 59.320312 32.171875 L 59.753906 32.027344 C 59.886719 31.984375 59.9375 31.898438 59.90625 31.761719 C 59.867188 31.625 59.777344 31.574219 59.640625 31.609375 L 59.207031 31.753906 C 59.070312 31.796875 59.019531 31.882812 59.054688 32.019531 C 59.09375 32.15625 59.183594 32.207031 59.320312 32.171875 Z M 59.320312 32.171875 " fill-opacity="1" fill-rule="nonzero"/><path fill="#232323" d="M 61.460938 34.929688 C 61.558594 34.867188 61.65625 34.804688 61.75 34.734375 C 61.804688 34.699219 61.84375 34.652344 61.863281 34.585938 C 61.894531 34.480469 61.863281 34.394531 61.777344 34.324219 C 61.6875 34.257812 61.597656 34.25 61.5 34.308594 C 61.398438 34.367188 61.304688 34.433594 61.207031 34.5 C 61.148438 34.53125 61.105469 34.582031 61.089844 34.652344 C 61.070312 34.71875 61.078125 34.785156 61.113281 34.84375 C 61.148438 34.90625 61.199219 34.945312 61.269531 34.960938 C 61.335938 34.976562 61.402344 34.96875 61.460938 34.929688 Z M 61.460938 34.929688 " fill-opacity="1" fill-rule="nonzero"/><path fill="#232323" d="M 63.390625 37.679688 C 63.574219 37.585938 63.761719 37.515625 63.957031 37.464844 C 64.214844 37.390625 64.179688 36.957031 63.894531 36.980469 C 63.621094 37.007812 63.367188 37.09375 63.132812 37.238281 C 62.851562 37.410156 63.101562 37.835938 63.390625 37.679688 Z M 63.390625 37.679688 " fill-opacity="1" fill-rule="nonzero"/><path fill="#232323" d="M 62.089844 28.199219 C 61.980469 27.46875 62.070312 26.761719 62.367188 26.085938 C 62.523438 25.730469 62.03125 25.417969 61.835938 25.773438 C 61.398438 26.570312 61.335938 27.402344 61.644531 28.257812 C 61.726562 28.476562 62.125 28.46875 62.089844 28.199219 Z M 62.089844 28.199219 " fill-opacity="1" fill-rule="nonzero"/><path fill="#ffffff" d="M 19.015625 41.242188 C 18.257812 40.269531 16.925781 39.816406 15.988281 38.96875 C 15.523438 38.539062 15.046875 38.054688 14.429688 37.90625 C 12.804688 37.523438 12.757812 39.511719 13.179688 40.496094 C 12.667969 40.007812 11.757812 40.03125 11.269531 40.546875 C 10.785156 41.058594 10.808594 41.964844 11.316406 42.453125 C 10.425781 42.039062 9.300781 42.710938 9.007812 43.648438 C 8.71875 44.589844 9.109375 45.628906 9.761719 46.367188 C 9.152344 46.589844 8.777344 47.257812 8.769531 47.910156 C 8.734375 50.417969 11.589844 51.53125 13.695312 51.351562 C 15.269531 51.21875 16.753906 50.488281 17.957031 49.464844 C 19.984375 47.75 21.257812 45.160156 21.339844 42.503906 " fill-opacity="1" fill-rule="nonzero"/><path fill="#232323" d="M 21.710938 41.894531 C 21.738281 43.007812 21.585938 44.09375 21.25 45.152344 C 20.914062 46.214844 20.414062 47.191406 19.75 48.082031 C 18.050781 50.371094 15.1875 52.144531 12.253906 51.652344 C 11.117188 51.460938 9.953125 50.976562 9.191406 50.082031 C 8.429688 49.183594 8.0625 47.648438 8.84375 46.636719 C 9.042969 46.371094 9.296875 46.175781 9.605469 46.046875 L 9.492188 46.601562 C 8.707031 45.6875 8.230469 44.324219 8.835938 43.191406 C 9.3125 42.304688 10.457031 41.726562 11.421875 42.160156 L 11.082031 42.65625 C 10.472656 42.027344 10.457031 40.949219 11.074219 40.316406 C 11.691406 39.679688 12.761719 39.722656 13.402344 40.300781 L 12.914062 40.621094 C 12.554688 39.753906 12.445312 38.277344 13.402344 37.730469 C 13.976562 37.40625 14.71875 37.632812 15.230469 37.972656 C 15.5625 38.191406 15.84375 38.46875 16.136719 38.738281 C 16.433594 39.003906 16.753906 39.242188 17.09375 39.453125 C 17.839844 39.933594 18.640625 40.367188 19.199219 41.078125 C 19.394531 41.328125 19.027344 41.648438 18.828125 41.402344 C 18.394531 40.863281 17.808594 40.5 17.226562 40.144531 C 16.632812 39.792969 16.078125 39.386719 15.5625 38.929688 C 15.121094 38.53125 14.566406 38.054688 13.929688 38.140625 C 13.523438 38.191406 13.335938 38.554688 13.273438 38.925781 C 13.195312 39.417969 13.25 39.898438 13.441406 40.363281 C 13.542969 40.605469 13.25 40.945312 13.011719 40.734375 C 12.59375 40.363281 11.894531 40.316406 11.492188 40.746094 C 11.085938 41.171875 11.15625 41.855469 11.550781 42.246094 C 11.773438 42.464844 11.492188 42.859375 11.214844 42.742188 C 10.515625 42.445312 9.714844 42.898438 9.410156 43.550781 C 9.003906 44.421875 9.445312 45.457031 10.027344 46.128906 C 10.167969 46.289062 10.132812 46.597656 9.914062 46.679688 C 8.808594 47.125 9.019531 48.652344 9.605469 49.4375 C 10.214844 50.261719 11.230469 50.722656 12.21875 50.90625 C 14.902344 51.390625 17.523438 49.8125 19.089844 47.71875 C 19.734375 46.867188 20.214844 45.933594 20.535156 44.914062 C 20.851562 43.894531 20.992188 42.851562 20.949219 41.785156 " fill-opacity="1" fill-rule="nonzero"/><path fill="#232323" d="M 12.582031 38.796875 C 12.742188 37.875 12.523438 37.050781 11.929688 36.328125 C 11.707031 36.0625 11.25 36.414062 11.445312 36.703125 C 11.871094 37.3125 12.105469 37.988281 12.140625 38.734375 C 12.152344 38.972656 12.535156 39.058594 12.582031 38.792969 Z M 12.582031 38.796875 " fill-opacity="1" fill-rule="nonzero"/><path fill="#232323" d="M 28.671875 30.636719 C 28.980469 31.6875 29.035156 32.871094 28.90625 33.957031 C 28.792969 34.910156 28.574219 36.226562 27.8125 36.890625 C 27.570312 37.105469 27.902344 37.546875 28.167969 37.347656 C 29.039062 36.683594 29.300781 35.328125 29.433594 34.300781 C 29.605469 33 29.4375 31.777344 29.058594 30.527344 C 28.980469 30.28125 28.601562 30.386719 28.671875 30.632812 Z M 28.671875 30.636719 " fill-opacity="1" fill-rule="nonzero"/><path fill="#232323" d="M 27.824219 29.34375 L 28.09375 29.6875 C 28.179688 29.796875 28.382812 29.785156 28.472656 29.6875 C 28.589844 29.5625 28.589844 29.4375 28.472656 29.308594 L 28.199219 28.96875 C 28.113281 28.859375 27.914062 28.871094 27.824219 28.96875 C 27.707031 29.09375 27.707031 29.21875 27.824219 29.34375 Z M 27.824219 29.34375 " fill-opacity="1" fill-rule="nonzero"/><path fill="#232323" d="M 73.488281 36.546875 C 74.210938 36.871094 74.417969 37.714844 74.261719 38.4375 C 74.089844 39.230469 73.621094 39.96875 73.167969 40.632812 C 72.265625 41.960938 71.085938 43.046875 69.75 43.925781 C 69.402344 44.152344 69.714844 44.707031 70.078125 44.488281 C 71.738281 43.488281 73.0625 42.15625 74.054688 40.488281 C 74.527344 39.695312 75.007812 38.777344 74.925781 37.824219 C 74.859375 37.0625 74.398438 36.375 73.660156 36.136719 C 73.425781 36.058594 73.253906 36.441406 73.488281 36.546875 Z M 73.488281 36.546875 " fill-opacity="1" fill-rule="nonzero"/><path fill="#232323" d="M 15.023438 41.445312 C 15.246094 41.589844 15.527344 41.679688 15.773438 41.78125 C 16.023438 41.882812 16.199219 41.46875 15.957031 41.347656 C 15.71875 41.226562 15.460938 41.085938 15.203125 41.015625 C 14.945312 40.945312 14.800781 41.304688 15.023438 41.445312 Z M 15.023438 41.445312 " fill-opacity="1" fill-rule="nonzero"/><path fill="#232323" d="M 13.863281 44.605469 C 14.03125 44.640625 14.199219 44.675781 14.367188 44.703125 C 14.523438 44.742188 14.621094 44.683594 14.667969 44.53125 C 14.710938 44.375 14.652344 44.273438 14.496094 44.230469 C 14.332031 44.191406 14.164062 44.160156 13.996094 44.125 C 13.839844 44.085938 13.738281 44.144531 13.691406 44.300781 C 13.648438 44.460938 13.707031 44.5625 13.863281 44.605469 Z M 13.863281 44.605469 " fill-opacity="1" fill-rule="nonzero"/><path fill="#232323" d="M 12.328125 48.722656 L 12.625 48.722656 C 12.695312 48.726562 12.757812 48.703125 12.808594 48.65625 C 12.859375 48.609375 12.886719 48.546875 12.886719 48.476562 C 12.886719 48.40625 12.859375 48.347656 12.808594 48.296875 C 12.757812 48.25 12.695312 48.226562 12.625 48.230469 L 12.324219 48.230469 C 12.171875 48.242188 12.09375 48.320312 12.09375 48.476562 C 12.09375 48.632812 12.171875 48.710938 12.324219 48.722656 Z M 12.328125 48.722656 " fill-opacity="1" fill-rule="nonzero"/><path fill="#232323" d="M 0.867188 49.875 C 0.132812 50.484375 0.00390625 51.550781 0.3125 52.414062 C 0.703125 53.507812 1.691406 54.210938 2.636719 54.796875 C 4.820312 56.15625 7.296875 57.535156 9.964844 56.941406 C 10.410156 56.84375 10.21875 56.175781 9.777344 56.265625 C 7.496094 56.734375 5.34375 55.625 3.449219 54.484375 C 2.601562 53.976562 1.648438 53.457031 1.097656 52.605469 C 0.636719 51.886719 0.550781 50.84375 1.214844 50.222656 C 1.449219 50.003906 1.109375 49.675781 0.867188 49.875 Z M 0.867188 49.875 " fill-opacity="1" fill-rule="nonzero"/><path fill="#232323" d="M 17.527344 39.761719 C 17.507812 39.226562 17.953125 38.746094 18.25 38.339844 C 18.542969 37.933594 18.863281 37.496094 19.207031 37.105469 C 19.863281 36.359375 20.632812 35.71875 21.59375 35.421875 C 21.984375 35.296875 21.816406 34.6875 21.421875 34.804688 C 20.316406 35.144531 19.425781 35.882812 18.691406 36.757812 C 18.328125 37.199219 17.988281 37.660156 17.675781 38.140625 C 17.351562 38.625 16.945312 39.140625 17.015625 39.757812 C 17.054688 40.078125 17.542969 40.09375 17.53125 39.757812 Z M 17.527344 39.761719 " fill-opacity="1" fill-rule="nonzero"/><path fill="#232323" d="M 21.277344 33.695312 C 21.398438 34.050781 21.464844 34.417969 21.480469 34.792969 C 21.492188 35.105469 21.976562 35.105469 21.96875 34.792969 C 21.953125 34.371094 21.875 33.964844 21.730469 33.570312 C 21.628906 33.289062 21.183594 33.40625 21.277344 33.695312 Z M 21.277344 33.695312 " fill-opacity="1" fill-rule="nonzero"/><path fill="#232323" d="M 14.421875 51.808594 C 14.472656 52.441406 14.820312 53.105469 15.054688 53.6875 C 15.289062 54.269531 15.53125 54.828125 15.796875 55.386719 C 16.210938 56.25 16.753906 57.183594 17.738281 57.445312 C 18.074219 57.535156 18.179688 57.066406 17.878906 56.941406 C 16.988281 56.578125 16.539062 55.65625 16.148438 54.839844 C 15.898438 54.324219 15.664062 53.800781 15.445312 53.273438 C 15.238281 52.769531 15.101562 52.160156 14.800781 51.707031 C 14.695312 51.550781 14.402344 51.59375 14.417969 51.808594 Z M 14.421875 51.808594 " fill-opacity="1" fill-rule="nonzero"/><g clip-path="url(#b5dc6e820f)"><path fill="#232323" d="M 19.429688 59.019531 C 20.492188 59.691406 21.816406 59.878906 23.054688 59.84375 C 24.25 59.808594 25.453125 59.457031 26.355469 58.648438 C 27.199219 57.894531 27.65625 56.738281 27.425781 55.617188 C 27.316406 55.085938 27.042969 54.503906 26.488281 54.332031 C 25.921875 54.152344 25.285156 54.3125 24.742188 54.488281 C 20.585938 55.871094 17.917969 59.59375 15.933594 63.296875 C 14.617188 65.75 13.5625 68.390625 13.234375 71.175781 C 13.199219 71.480469 13.730469 71.554688 13.777344 71.246094 C 14.417969 67.257812 16.273438 63.480469 18.585938 60.195312 C 19.644531 58.6875 20.890625 57.316406 22.441406 56.300781 C 23.332031 55.71875 24.332031 55.207031 25.371094 54.957031 C 25.664062 54.886719 26.035156 54.820312 26.324219 54.929688 C 26.613281 55.042969 26.746094 55.433594 26.8125 55.722656 C 26.933594 56.285156 26.863281 56.828125 26.601562 57.34375 C 26.058594 58.4375 24.855469 59.023438 23.691406 59.191406 C 22.390625 59.375 20.832031 59.257812 19.671875 58.605469 C 19.402344 58.453125 19.171875 58.855469 19.429688 59.019531 Z M 19.429688 59.019531 " fill-opacity="1" fill-rule="nonzero"/></g><path fill="#232323" d="M 58.933594 54.207031 C 60.871094 53.675781 62.503906 52.660156 63.835938 51.160156 C 63.96875 51.011719 63.75 50.792969 63.617188 50.941406 C 62.320312 52.398438 60.734375 53.398438 58.863281 53.945312 C 58.78125 53.972656 58.753906 54.027344 58.777344 54.109375 C 58.796875 54.191406 58.851562 54.222656 58.933594 54.203125 Z M 58.933594 54.207031 " fill-opacity="1" fill-rule="nonzero"/><path fill="#232323" d="M 61.929688 55.078125 L 62.679688 54.519531 C 62.816406 54.414062 62.679688 54.175781 62.539062 54.285156 L 61.792969 54.84375 C 61.65625 54.949219 61.792969 55.1875 61.933594 55.078125 Z M 61.929688 55.078125 " fill-opacity="1" fill-rule="nonzero"/><path fill="#232323" d="M 20.65625 64.589844 C 21.914062 64.894531 23.128906 64.773438 24.304688 64.230469 C 24.476562 64.152344 24.328125 63.898438 24.15625 63.976562 C 23.054688 64.488281 21.910156 64.613281 20.722656 64.351562 C 20.566406 64.316406 20.5 64.554688 20.65625 64.589844 Z M 20.65625 64.589844 " fill-opacity="1" fill-rule="nonzero"/><path fill="#232323" d="M 21.996094 67.214844 C 22.605469 67.226562 23.128906 67.027344 23.574219 66.613281 C 23.6875 66.507812 23.523438 66.347656 23.40625 66.445312 C 23 66.785156 22.527344 66.953125 21.996094 66.945312 C 21.824219 66.945312 21.824219 67.210938 21.996094 67.214844 Z M 21.996094 67.214844 " fill-opacity="1" fill-rule="nonzero"/></svg>