<svg xmlns="http://www.w3.org/2000/svg" xmlns:xlink="http://www.w3.org/1999/xlink" width="100" zoomAndPan="magnify" viewBox="0 0 75 74.999997" height="100" preserveAspectRatio="xMidYMid meet" version="1.0"><defs><g/><clipPath id="399a9d24d5"><path d="M 75 37.5 C 75 58.210938 58.210938 75 37.5 75 C 16.789062 75 0 58.210938 0 37.5 C 0 16.789062 16.789062 0 37.5 0 C 58.210938 0 75 16.789062 75 37.5 Z M 75 37.5 " clip-rule="nonzero"/></clipPath><clipPath id="abc125b71a"><path d="M 75 37.5 C 75 58.210938 58.210938 75 37.5 75 C 16.789062 75 0 58.210938 0 37.5 C 0 16.789062 16.789062 0 37.5 0 C 58.210938 0 75 16.789062 75 37.5 " clip-rule="nonzero"/></clipPath><clipPath id="6c5c423456"><path d="M 37.5 -37.5 L -37.5 37.5 L 37.5 112.5 L 112.5 37.5 Z M 37.5 -37.5 " clip-rule="nonzero"/></clipPath><linearGradient x1="-0.207238" gradientTransform="matrix(53.033007, 53.033007, -53.033007, 53.033007, 10.973685, 11.007178)" y1="0" x2="1.206976" gradientUnits="userSpaceOnUse" y2="0" id="5d95a16e81"><stop stop-opacity="1" stop-color="rgb(0%, 68.598938%, 89.7995%)" offset="0"/><stop stop-opacity="1" stop-color="rgb(0%, 68.598938%, 89.7995%)" offset="0.125"/><stop stop-opacity="1" stop-color="rgb(0%, 68.597412%, 89.7995%)" offset="0.15625"/><stop stop-opacity="1" stop-color="rgb(0%, 68.400574%, 89.7995%)" offset="0.171875"/><stop stop-opacity="1" stop-color="rgb(0%, 68.202209%, 89.607239%)" offset="0.1875"/><stop stop-opacity="1" stop-color="rgb(0%, 68.103027%, 89.407349%)" offset="0.195312"/><stop stop-opacity="1" stop-color="rgb(0%, 67.903137%, 89.399719%)" offset="0.203125"/><stop stop-opacity="1" stop-color="rgb(0%, 67.799377%, 89.204407%)" offset="0.21875"/><stop stop-opacity="1" stop-color="rgb(0%, 67.645264%, 89.004517%)" offset="0.234375"/><stop stop-opacity="1" stop-color="rgb(0%, 67.297363%, 88.999939%)" offset="0.25"/><stop stop-opacity="1" stop-color="rgb(0%, 67.100525%, 88.806152%)" offset="0.265625"/><stop stop-opacity="1" stop-color="rgb(0%, 67.001343%, 88.604736%)" offset="0.273438"/><stop stop-opacity="1" stop-color="rgb(0%, 66.801453%, 88.598633%)" offset="0.28125"/><stop stop-opacity="1" stop-color="rgb(0%, 66.506958%, 88.406372%)" offset="0.3125"/><stop stop-opacity="1" stop-color="rgb(0%, 66.210938%, 88.206482%)" offset="0.320312"/><stop stop-opacity="1" stop-color="rgb(0%, 66.003418%, 88.198853%)" offset="0.328125"/><stop stop-opacity="1" stop-color="rgb(0%, 65.899658%, 88.00354%)" offset="0.34375"/><stop stop-opacity="1" stop-color="rgb(0%, 65.800476%, 87.80365%)" offset="0.351562"/><stop stop-opacity="1" stop-color="rgb(0%, 65.600586%, 87.799072%)" offset="0.359375"/><stop stop-opacity="1" stop-color="rgb(0%, 65.499878%, 87.799072%)" offset="0.375"/><stop stop-opacity="1" stop-color="rgb(0%, 65.304565%, 87.652588%)" offset="0.390625"/><stop stop-opacity="1" stop-color="rgb(0%, 65.007019%, 87.503052%)" offset="0.398437"/><stop stop-opacity="1" stop-color="rgb(0%, 64.801025%, 87.5%)" offset="0.40625"/><stop stop-opacity="1" stop-color="rgb(0%, 64.506531%, 87.306213%)" offset="0.4375"/><stop stop-opacity="1" stop-color="rgb(0%, 64.306641%, 87.106323%)" offset="0.453125"/><stop stop-opacity="1" stop-color="rgb(0%, 64.103699%, 86.903381%)" offset="0.46875"/><stop stop-opacity="1" stop-color="rgb(0%, 63.804626%, 86.703491%)" offset="0.476562"/><stop stop-opacity="1" stop-color="rgb(0%, 63.600159%, 86.698914%)" offset="0.484375"/><stop stop-opacity="1" stop-color="rgb(0%, 63.499451%, 86.698914%)" offset="0.5"/><stop stop-opacity="1" stop-color="rgb(0%, 63.304138%, 86.505127%)" offset="0.515625"/><stop stop-opacity="1" stop-color="rgb(0%, 63.102722%, 86.305237%)" offset="0.53125"/><stop stop-opacity="1" stop-color="rgb(0%, 62.89978%, 86.299133%)" offset="0.546875"/><stop stop-opacity="1" stop-color="rgb(0%, 62.556458%, 86.105347%)" offset="0.5625"/><stop stop-opacity="1" stop-color="rgb(0%, 62.40387%, 85.905457%)" offset="0.578125"/><stop stop-opacity="1" stop-color="rgb(0%, 62.202454%, 85.702515%)" offset="0.59375"/><stop stop-opacity="1" stop-color="rgb(0%, 61.999512%, 85.502625%)" offset="0.609375"/><stop stop-opacity="1" stop-color="rgb(0%, 61.79657%, 85.499573%)" offset="0.625"/><stop stop-opacity="1" stop-color="rgb(0%, 61.405945%, 85.30426%)" offset="0.640625"/><stop stop-opacity="1" stop-color="rgb(0%, 61.203003%, 85.10437%)" offset="0.65625"/><stop stop-opacity="1" stop-color="rgb(0%, 61.000061%, 85.099792%)" offset="0.671875"/><stop stop-opacity="1" stop-color="rgb(0%, 60.801697%, 84.906006%)" offset="0.6875"/><stop stop-opacity="1" stop-color="rgb(0%, 60.702515%, 84.706116%)" offset="0.695312"/><stop stop-opacity="1" stop-color="rgb(0%, 60.501099%, 84.69696%)" offset="0.703125"/><stop stop-opacity="1" stop-color="rgb(0%, 60.202026%, 84.501648%)" offset="0.71875"/><stop stop-opacity="1" stop-color="rgb(0%, 59.999084%, 84.301758%)" offset="0.734375"/><stop stop-opacity="1" stop-color="rgb(0%, 59.796143%, 84.298706%)" offset="0.75"/><stop stop-opacity="1" stop-color="rgb(0%, 59.599304%, 84.103394%)" offset="0.765625"/><stop stop-opacity="1" stop-color="rgb(0%, 59.500122%, 83.903503%)" offset="0.773438"/><stop stop-opacity="1" stop-color="rgb(0%, 59.298706%, 83.898926%)" offset="0.78125"/><stop stop-opacity="1" stop-color="rgb(0%, 59.09729%, 83.898926%)" offset="0.789062"/><stop stop-opacity="1" stop-color="rgb(0%, 58.900452%, 83.898926%)" offset="0.796875"/><stop stop-opacity="1" stop-color="rgb(0%, 58.80127%, 83.705139%)" offset="0.8125"/><stop stop-opacity="1" stop-color="rgb(0%, 58.702087%, 83.505249%)" offset="0.820312"/><stop stop-opacity="1" stop-color="rgb(0%, 58.502197%, 83.49762%)" offset="0.828125"/><stop stop-opacity="1" stop-color="rgb(0%, 58.399963%, 83.302307%)" offset="0.84375"/><stop stop-opacity="1" stop-color="rgb(0%, 58.300781%, 83.102417%)" offset="0.859375"/><stop stop-opacity="1" stop-color="rgb(0%, 58.100891%, 83.099365%)" offset="0.875"/><stop stop-opacity="1" stop-color="rgb(0%, 57.998657%, 83.099365%)" offset="1"/></linearGradient></defs><g clip-path="url(#399a9d24d5)"><g clip-path="#000"><g clip-path="#000"><path fill="#000" d="M 37.5 -37.5 L -37.5 37.5 L 37.5 112.5 L 112.5 37.5 Z M 37.5 -37.5 " fill-rule="nonzero"/></g></g></g><path fill="#ffffff" d="M 53.667969 21.027344 C 53.523438 21.027344 53.378906 21.054688 53.230469 21.109375 L 15.488281 35.449219 C 14.421875 35.855469 14.453125 37.371094 15.53125 37.738281 L 24.28125 40.695312 L 29.558594 51.253906 C 29.558594 51.257812 29.5625 51.261719 29.5625 51.265625 L 29.578125 51.292969 L 29.582031 51.289062 C 29.675781 51.484375 29.875 51.609375 30.089844 51.609375 C 30.214844 51.609375 30.339844 51.570312 30.453125 51.476562 L 35.394531 47.285156 L 29.875 43.09375 L 30.308594 48.597656 L 26.339844 40.382812 L 47.429688 27.714844 L 29.875 43.09375 L 43.539062 53.464844 C 43.996094 53.8125 44.523438 53.972656 45.035156 53.972656 C 46.121094 53.972656 47.160156 53.261719 47.457031 52.085938 L 54.84375 22.539062 C 55.042969 21.738281 54.417969 21.027344 53.667969 21.027344 " fill-opacity="1" fill-rule="nonzero"/><g fill="#ffffff" fill-opacity="1"><g transform="translate(36.972915, 38.874994)"><g><path d="M 0.53125 0.015625 C 0.457031 0.015625 0.394531 -0.00390625 0.34375 -0.046875 C 0.300781 -0.0859375 0.28125 -0.140625 0.28125 -0.203125 C 0.28125 -0.273438 0.300781 -0.332031 0.34375 -0.375 C 0.394531 -0.414062 0.457031 -0.4375 0.53125 -0.4375 C 0.601562 -0.4375 0.660156 -0.414062 0.703125 -0.375 C 0.742188 -0.332031 0.765625 -0.28125 0.765625 -0.21875 C 0.765625 -0.144531 0.742188 -0.0859375 0.703125 -0.046875 C 0.660156 -0.00390625 0.601562 0.015625 0.53125 0.015625 Z M 0.53125 0.015625 "/></g></g></g></svg>